<svg xmlns="http://www.w3.org/2000/svg"><defs><font horiz-adv-x="573"><font-face ascent="1600" bbox="-896 -425 2261 1738" cap-height="1275" descent="-400" panose-1="0 0 0 0 0 0 0 0 0 0" underline-position="-225" underline-thickness="50" unicode-range="U+000D-E032" units-per-em="2000" x-height="671"/><missing-glyph horiz-adv-x="333"/><glyph glyph-name=".notdef" horiz-adv-x="333"/><glyph glyph-name=".null" horiz-adv-x="0"/><glyph glyph-name="nonmarkingreturn" horiz-adv-x="666"/><glyph glyph-name="NULL" horiz-adv-x="0"/><glyph glyph-name="NULL" horiz-adv-x="0"/><glyph glyph-name="CR" horiz-adv-x="532" unicode="&#xd;"/><glyph glyph-name="space" horiz-adv-x="532" unicode="&#x20;"/><glyph d="M269 306q0 74 75.5 294t163 411 116.5 191q57 0 107.5-31t50.5-65q0-13-12-25-60-60-233-407t-173-412q0-21-22-21-23 0-48 20t-25 45zM242 159q41 0 77.5-18t37.5-40q0-9-10-19-15-13-28.5-38.5t-13.5-39.5q0-26-41-26-37 0-62 25.5t-25 63.5q0 35 20 63.5t45 28.5z" glyph-name="exclam" horiz-adv-x="605" unicode="&#x21;"/><glyph d="M335 934q0 69 41 173t73 104q41 0 68-13t27-34q0-26-71.5-138.5t-71.5-137.5q0-9-6-9-13 0-36.5 17.5t-23.5 37.5zM573 934q0 69 41 173t73 104q41 0 68-13t27-34q0-26-71.5-138.5t-71.5-137.5q0-9-6-9-13 0-36.5 17.5t-23.5 37.5z" glyph-name="quotedbl" horiz-adv-x="660" unicode="&#x22;"/><glyph d="M775 740h169q60 171 60 211 0 10 7 10 20 0 66.5-24t46.5-37q0-44-38-165 208-8 215-23 1-1 1-5 0-21-22-67.5t-35-46.5q-5 0-9 2-32 12-194 12-57-161-95-255 203-8 210-23 1-1 1-5 0-21-22-67.5t-35-46.5q-5 0-9 2-32 12-195 12-67-173-69-211 0-13-11-13-23 0-73.5 28.5t-50.5 50.5q0 15 52 148-17 0-79.5-.5t-80.5-.5q-68-175-70-214 0-12-12-12-22 0-72.5 28.5t-50.5 50.5q0 16 49 141-178-7-204-20-4-1-8-1-7 0-7 10 0 23 27.5 68.5t51.5 56.5q31 14 193 19 40 99 98 251-186-9-211-21-4-1-8-1-7 0-7 10 0 23 27.5 68.5t52.5 56.5q42 19 196 19 61 173 61 215 0 10 7 10 20 0 66.5-24t46.5-37q0-44-36-160zM636 357h161q64 159 99 253-17 0-82.5-.5t-83.5-.5q-41-115-94-252z" glyph-name="numbersign" horiz-adv-x="1452" unicode="&#x23;"/><glyph d="M724 272q0-120-116.5-197t-278.5-77q-17-59-17-81 0-12 8.5-24t8.5-16q1-8-9-14t-24-6q-25 0-40.5 20.5t-15.5 53.5q0 25 14 72-102 15-151.5 73t-49.5 150q0 53 27.5 118t49.5 65q6 0 12.5-4.5t6.5-12.5-8-27q-16-46-16-85 0-126 183-126 35 93 120 298-43 19-65.5 30t-58.5 34-54.5 45-33 56.5-14.5 74.5q0 95 67 191t171.5 157.5 207.5 61.5q33 0 67-8 29 61 41 81 7 14 13 14 13 0 29-21t16-36q0-10-13-17.5t-17-15.5q-5-7-14-27 112-66 112-224 0-93-38.5-154t-97.5-61q-35 0-76 20t-41 37q0 9 15 9 38 0 72 81t34 150q0 43-17 65-104-219-221-505 19-12 57-31.5t59.5-33 46.5-35.5 37-51 12-67zM396 685q0-99 65-157 109 254 215 484-112-10-196-107t-84-220zM381 158q89 12 149.5 52.5t60.5 98.5q0 38-27 64.5t-79 52.5q-72-175-104-268z" glyph-name="dollar" horiz-adv-x="923" unicode="&#x24;"/><glyph d="M971 1180q67 0 67-125 0-52-33-52-53 0-199-164.5t-293.5-372-262.5-404-115-254.5q0-32-26-32-28 0-53 49.5t-25 91.5q0 85 125.5 297.5t286 424.5 317 376.5 211.5 164.5zM738 42q0-98-65.5-174t-149.5-76q-63 0-103.5 45t-40.5 117q0 96 68 173.5t152 77.5q62 0 100.5-45t38.5-118zM417 1215q61 0 99.5-45t38.5-117q0-98-65.5-174.5t-149.5-76.5q-63 0-103 45t-40 117q0 96 68 173.5t152 77.5zM405 1135q-39 0-71.5-54t-32.5-116q0-38 14-60t37-22q38 0 69 54.5t31 119.5q0 78-47 78zM534-127q38 0 69 54.5t31 119.5q0 78-47 78-38 0-71-54t-33-116q0-38 14-60t37-22z" glyph-name="percent" horiz-adv-x="939" unicode="&#x25;"/><glyph d="M522 862q0-93 160-172 41-11 92-29 19-7 37-32.5t18-48.5q0-20-11-20-5 0-23 6-90 30-183 30-123 0-227.5-52t-163-134-58.5-172q0-96 68.5-152t186.5-56q164 0 272 106t116 277q-127-30-206.5-66.5t-79.5-63.5q0-13-16.5-24t-32.5-11q-21 0-21 21 0 74 256 185 251 110 406 252.5t155 262.5q0 54-31 88t-80 34q-43 0-43 21-1 11 15 19t47 8q83 0 134.5-62t51.5-163q0-160-128.5-289.5t-343.5-191.5q-8-217-149.5-366t-342.5-149q-170 0-283.5 108t-113.5 271q0 162 114.5 278.5t300.5 137.5q-105 71-105 158 0 70 62 151t157.5 137.5 182.5 56.5q86 0 150.5-53.5t64.5-126.5q0-65-48.5-130.5t-93.5-65.5q-29 0-75.5 25t-46.5 38q0 7 9 7 29 0 84.5 72t59.5 128q-63-3-132.5-43t-115.5-97.5-46-107.5z" glyph-name="ampersand" horiz-adv-x="1110" unicode="&#x26;"/><glyph d="M544 1164q0-26-71.5-138.5t-71.5-137.5q0-9-6-9-13 0-36.5 17.5t-23.5 37.5q0 69 41 173t73 104q41 0 68-13t27-34z" glyph-name="quotesingle" horiz-adv-x="422" unicode="&#x27;"/><glyph d="M85 96q0 133 29.5 278t80 277.5 119.5 253 144.5 208.5 159 140 160.5 52q28 0 43.5-12t15.5-27q0-25-34-25-60 0-137-88.5t-149-232.5-133.5-309.5-99-336-37.5-296.5q0-114 29.5-184t77.5-70q16 0 24.5-7.5t8.5-17.5q0-16-17-27.5t-52-11.5q-106 0-169.5 118t-63.5 318z" glyph-name="parenleft" horiz-adv-x="636" unicode="&#x28;"/><glyph d="M-200-301q0 25 34 25 54 0 128.5 83.5t147 221.5 135 299.5 101.5 336 39 311.5q0 121-29.5 193t-77.5 72q-16 0-24.5 7.5t-8.5 17.5q0 16 17 27.5t52 11.5q106 0 169.5-119t63.5-325q0-139-30.5-286.5t-82-278.5-121-249-144.5-202.5-156.5-134.5-153.5-50q-28 0-43.5 12t-15.5 27z" glyph-name="parenright" horiz-adv-x="632" unicode="&#x29;"/><glyph d="M573 1004q0 112-14 151-3 6-3 10 0 13 46.5 35t68.5 22q3 0 5-1 13-6 20.5-67t7.5-149q105 53 125 75 8 10 17 10 15 0 55.5-34.5t40.5-48.5q0-26-148-103 107-43 133-43 14 0 14-9 0-15-51-48.5t-81-33.5q-29 0-110 33-6-87-17-114-12-27-58-55.5t-69-28.5q-10 0-10 8 0 3 3 11 15 35 22 177-78-31-106-31-30 0-80.5 32.5t-50.5 50.5q0 8 13 8 29 0 133 43-147 76-147 99 0 13 41 50t56 37q6 0 13-7 27-27 131-79z" glyph-name="asterisk" horiz-adv-x="1092" unicode="&#x2a;"/><glyph d="M651 917q18 0 64.5-21.5t46.5-33.5q0-32-54-278 101 0 178.5-5t118-13.5 40.5-19.5q0-12-20-53.5t-31-41.5q-1 0-10 3-28 16-301 16-72-307-72-334 0-13-12-13-19 0-64.5 26t-45.5 45q0 22 64 276-105 0-213.5-8t-128.5-18q-9-3-12-3-7 0-7 11 0 23 25.5 62t46.5 48q52 23 317 23 27 105 45.5 203t18.5 121q0 8 6 8z" glyph-name="plus" horiz-adv-x="1192" unicode="&#x2b;"/><glyph d="M124 125q0 27 35 27 30 0 61-20.5t31-40.5q0-65-42.5-129t-97.5-101-97-37q-27 0-60.5 14.5t-33.5 26.5q0 8 18 8 59 0 122.5 77t63.5 175z" glyph-name="comma" horiz-adv-x="529" unicode="&#x2c;"/><glyph d="M536 451q245 0 256-24 1-2 1-5 0-22-22-68.5t-35-46.5q-5 0-11 3-27 10-188 10-300 0-345-22-5-2-9-2-7 0-7 10 0 23 28.5 69t55.5 58q44 18 276 18z" glyph-name="hyphen" horiz-adv-x="892" unicode="&#x2d;"/><glyph d="M250 82q-15-13-28.5-38.5t-13.5-39.5q0-26-41-26-37 0-62 25.5t-25 63.5q0 35 20 63.5t45 28.5q41 0 77.5-18t37.5-40q0-9-10-19z" glyph-name="period" horiz-adv-x="508" unicode="&#x2e;"/><glyph d="M764 1311q40 0 65.5-42t25.5-86q0-49-29-49-55 0-186-203t-259.5-458-228-489-99.5-293q0-33-26-33-29 0-65 50t-36 86q0 88 110 339.5t251 511 281.5 463 195.5 203.5z" glyph-name="slash" horiz-adv-x="624" unicode="&#x2f;"/><glyph d="M409 0q-157 0-258.5 114t-101.5 293q0 157 78.5 303.5t206.5 236.5 266 90q155 0 252-113.5t97-295.5q0-120-45-235.5t-119-201.5-173.5-138.5-202.5-52.5zM243 371q0-130 47.5-205t125.5-75q84 0 163.5 86.5t127.5 224 48 279.5q0 138-45 203t-115 65q-85 0-167.5-86t-133.5-221-51-271z" glyph-name="zero" horiz-adv-x="999" unicode="&#x30;"/><glyph d="M388 8q-5 0-9 2-31 12-164 12-229 0-272-20-4-2-9-2-6 0-6 7 0 20 23 57t46 47q21 9 108 16l226 767q-66-42-121.5-95t-55.5-78q0-8-10-8-19 0-42.5 12t-23.5 28q0 26 63 95.5t136.5 129 99.5 59.5q52 0 97.5-39t45.5-78l-243-791q145 0 157-23 1-1 1-5 0-17-18-55t-29-38z" glyph-name="one" horiz-adv-x="560" unicode="&#x31;"/><glyph d="M641 796q0 68-39.5 108t-112.5 40q-108 0-203-79t-95-169q0-45 25.5-73.5t65.5-28.5q35 0 35-17 0-9-13.5-15.5t-38.5-6.5q-66 0-108 49t-42 122q0 85 60.5 158t152 113 187.5 40q139 0 232-82.5t93-201.5q0-233-389-538 149-40 252-117.5t103-143.5q0-37-28-81t-53-44q-15 0-15 25 0 74-101.5 162.5t-243.5 134.5q-200-144-307-144-55 0-88 25t-33 66q0 66 84.5 106t215.5 40q19 0 28-1 30 28 46 43 144 134 237 269t93 241zM169 184q-78 0-128.5-20t-50.5-52q0-26 28-26 52 0 176 97-9 1-25 1z" glyph-name="two" horiz-adv-x="911" unicode="&#x32;"/><glyph d="M472 582q91-20 139-78t48-145q0-103-64-186t-170-128-230-45q-121 0-189.5 43.5t-68.5 119.5q0 54 30.5 107.5t64.5 53.5q22 0 59-20t37-30q0-5-8-5-20 0-57.5-59t-37.5-92q0-27 30-44.5t78-17.5q82 0 164.5 48t136.5 125.5 54 156.5-55 125-150 46q-16 0-30 14.5t-14 30.5q0 18 15 18 129 0 220 61t91 149q0 63-49.5 101.5t-125.5 38.5q-74 0-132-38t-93-108q-26-50-47-50-8 0-14 7t-6 18q0 9 7 28 37 95 130.5 152.5t212.5 57.5q122 0 198.5-59t76.5-148q0-83-68.5-149t-182.5-99z" glyph-name="three" horiz-adv-x="723" unicode="&#x33;"/><glyph d="M357 128l74 249q-233 0-420-42-10 0-20 10.5t-10 22.5q0 14 153 180.5t315 327.5 181 161q52 0 97.5-39t45.5-78l-136-447q44-9 72.5-22t28.5-22q0-25-20.5-58t-34.5-33q-5 0-19 7-26 13-59 21l-72-237q62-3 102-12.5t40-22.5q0-12-18-49t-29-37q-3 0-7 2-33 13-162 13-93 0-175-6t-101-15q-4-2-8-2-6 0-6 8 0 19 23 56.5t45 47.5q24 11 120 16zM462 483l110 371q-88-82-206-202.5t-183-195.5q135 27 279 27z" glyph-name="four" horiz-adv-x="813" unicode="&#x34;"/><glyph d="M168 576q-10 0-10 19 0 50 77 232t108 191q63 19 251 19 225 0 225-40 0-14-19.5-48.5t-27.5-34.5q-6 0-10 2-32 12-162 12-132 0-187-5-24-34-56.5-113.5t-47.5-132.5q20 2 37 2 136 0 236.5-81.5t100.5-211.5q0-100-62-189.5t-168-143-226-53.5q-111 0-179.5 46t-68.5 124q0 58 32 113.5t68 55.5q22 0 60.5-21t38.5-31q0-6-7-6-22 0-61.5-61t-39.5-96q0-28 29.5-46.5t72.5-18.5q72 0 151 54.5t130 134 51 149.5q0 83-70 144.5t-159 61.5q-57 0-107-27z" glyph-name="five" horiz-adv-x="761" unicode="&#x35;"/><glyph d="M32 319q0 119 52.5 248t136.5 232.5 199.5 170.5 231.5 67q41 0 71-15t30-34q0-10-7-10-119 0-241-99t-202-251q63 15 124 15 141 0 213-74t72-204q0-162-103.5-263.5t-267.5-101.5q-147 0-228 85t-81 234zM213 292q0-105 37-161.5t99-56.5q75 0 127.5 78t52.5 192q0 212-198 212-26 0-64-5-54-133-54-259z" glyph-name="six" horiz-adv-x="818" unicode="&#x36;"/><glyph d="M36 83q0 42 105.5 238t338.5 600q-66 6-144 6-182 0-182-23 0-4-8-4-16 0-28 20.5t-12 37.5q0 36 70.5 57.5t188.5 21.5q141 0 230-30.5t89-77.5q0-11-11-24-62-75-222.5-359t-247.5-531q-5-15-32-15-38 0-86.5 26t-48.5 57z" glyph-name="seven" horiz-adv-x="655" unicode="&#x37;"/><glyph d="M745 795q0-99-61.5-195t-144.5-134q123-120 123-232 0-101-94-167.5t-237-66.5-227.5 69.5-84.5 187.5q0 112 71 210.5t162 114.5q-92 91-92 198 0 114 83 185.5t216 71.5q128 0 207-66.5t79-175.5zM500 243q0 64-48 138.5t-133 143.5q-58-20-97.5-95t-39.5-171q0-89 37-138t104-49q72 0 124.5 51t52.5 120zM315 794q0-134 151-265 54 40 90 118t36 161q0 150-125 150-69 0-110.5-45t-41.5-119z" glyph-name="eight" horiz-adv-x="761" unicode="&#x38;"/><glyph d="M157 0q-41 0-71 15t-30 34q0 10 7 10 119 0 238.5 98.5t195.5 249.5q-57-13-115-13-143 0-222 76t-79 209q0 157 102 257.5t259 100.5q146 0 232.5-90t86.5-243q0-92-31.5-191.5t-89-190-131.5-163.5-166.5-116-185.5-43zM583 740q0 109-38 166t-100 57q-76 0-131-77.5t-55-188.5q0-107 56.5-161.5t159.5-54.5q30 0 57 4 51 131 51 255z" glyph-name="nine" horiz-adv-x="809" unicode="&#x39;"/><glyph d="M145 159q41 0 77.5-18t37.5-40q0-9-10-19-15-13-28.5-38.5t-13.5-39.5q0-26-41-26-37 0-62 25.5t-25 63.5q0 35 20 63.5t45 28.5zM281 361q-37 0-62 25.5t-25 63.5q0 35 20 63.5t45 28.5q41 0 77.5-18t37.5-40q0-9-10-19-15-13-28.5-38.5t-13.5-39.5q0-26-41-26z" glyph-name="colon" horiz-adv-x="508" unicode="&#x3a;"/><glyph d="M-61-127q59 0 122 77t63 175q0 27 35 27 30 0 61-20.5t31-40.5q0-65-42.5-129t-97.5-101-97-37q-27 0-60.5 14.5t-33.5 26.5q0 8 19 8zM302 361q-37 0-62 25.5t-25 63.5q0 35 20 63.5t45 28.5q41 0 77.5-18t37.5-40q0-9-10-19-15-13-28.5-38.5t-13.5-39.5q0-26-41-26z" glyph-name="semicolon" horiz-adv-x="529" unicode="&#x3b;"/><glyph d="M1017 247q0-18-44-44t-65-26q-13 0-22 13-13 22-112.5 69t-231.5 99q-121 46-206.5 86.5t-85.5 54.5q0 8 26.5 24.5t87 44.5 107 48.5 134.5 58.5q87 37 139 60t115.5 52.5 97 49 39.5 30.5q7 12 21 12 21 0 65-26t44-43q0-50-449-234-84-34-174-74 242-92 378-159.5t136-95.5z" glyph-name="less" horiz-adv-x="1276" unicode="&#x3c;"/><glyph d="M1302 708q0-22-22-68.5t-35-46.5q-5 0-9 2-19 7-160 11t-241 4q-132 0-288-8t-179-19q-3-1-7-1-7 0-7 10 0 23 27 68.5t50 55.5q28 11 162 18t246 7q463 0 463-33zM1158 325q0-22-22-68.5t-35-46.5q-5 0-9 2-19 7-160 11t-241 4q-132 0-288-8t-179-19q-3-1-7-1-7 0-7 10 0 23 27 68.5t50 55.5q28 11 162 18t246 7q463 0 463-33z" glyph-name="equal" horiz-adv-x="1452" unicode="&#x3d;"/><glyph d="M359 177q-21 0-65 26t-44 43q0 29 131.5 94t317.5 140q71 28 174 74-57 28-139 59-150 55-262.5 110.5t-112.5 84.5q0 18 43.5 44.5t65.5 26.5q13 0 22-13 13-22 112.5-69t231.5-99q121-46 206.5-86.5t85.5-54.5q0-8-26.5-24.5t-87-44.5-107-48.5-134.5-58.5q-87-37-139-60t-115.5-52.5-97-49-39.5-30.5q-7-12-21-12z" glyph-name="greater" horiz-adv-x="1276" unicode="&#x3e;"/><glyph d="M177 67q0 35 20 63.5t45 28.5q41 0 77.5-18t37.5-40q0-9-10-19-15-13-28.5-38.5t-13.5-39.5q0-26-41-26-37 0-62 25.5t-25 63.5zM653 551q-57-42-86-64.5t-73.5-61.5-66-67.5-38.5-66-17-74.5q0-8-10-8-25 0-51 34.5t-26 68.5q0 32 16.5 67.5t36.5 62.5 62 66.5 67.5 61.5 78.5 65q51 41 78.5 64t67.5 61 60.5 65.5 36.5 62.5 16 66q0 67-60 109.5t-155 42.5q-113 0-188-59.5t-75-149.5q0-57 30.5-92t80.5-35q44 0 44-21 0-11-17-19t-50-8q-82 0-131.5 51.5t-49.5 136.5q0 131 112 220.5t276 89.5q152 0 253.5-77t101.5-194q0-34-10.5-67.5t-25-61-43.5-60-50.5-54.5-62.5-54.5-64-50-68-50.5z" glyph-name="question" horiz-adv-x="801" unicode="&#x3f;"/><glyph d="M1147 233q0-45 21.5-70t56.5-25q57 0 113 64t91 161.5 35 191.5q0 170-115 279.5t-288 109.5q-124 0-248.5-61t-218.5-158.5-153-227-59-257.5q0-179 111.5-278t308.5-99q104 0 199 19 12 3 19 3 14 0 22.5-6.5t8.5-13.5q0-22-97-45t-188-23q-249 0-408 150t-159 394q0 148 63 286t168 239.5 249 162.5 299 61q180 0 334.5-78t245-210.5 90.5-285.5q0-124-58.5-231t-156.5-169.5-209-62.5q-110 0-188 60t-85 156q-53-99-99.5-154t-88.5-55q-45 0-119.5 46.5t-74.5 77.5q0 128 50 257.5t125 210 145 80.5q46 0 118-25.5t80-56.5q54 82 84 82 26 0 82.5-38t56.5-64q0-11-13-25-41-43-95.5-170t-54.5-202zM1078 636q-76 0-151-72t-122.5-193-47.5-250q31 11 79 87t121 214 121 214z" glyph-name="at" horiz-adv-x="1796" unicode="&#x40;"/><glyph d="M908 23q0 116 38 283-66 32-136 56-150-177-296-282t-253-105q-77 0-126 51.5t-49 133.5q0 141 143.5 235.5t357.5 94.5q87 0 183-17 126 163 225 337.5t141 315.5q-184-15-340.5-75.5t-248.5-150.5-92-188q0-54 28-83t77-29q24 0 37-6.5t13-14.5q0-11-18-19t-52-8q-82 0-130.5 48t-48.5 130q0 133 123 260t324 206 413 79q56 0 129-51t122-113 49-96q0-13-8.5-23t-19.5-10q-35 0-95.5-91t-125.5-242-107-307q155-84 155-165 0-42-35-94t-65-52q-19 0-19 28 0 60-71 126-17-100-17-186 0-121 32.5-200t83.5-79q31 0 51 28t20 71q0 54 23 54 10 0 17-16t7-46q0-71-47-113.5t-126-42.5q-121 0-193.5 100t-72.5 268zM516 416q-153 0-259-71t-106-173q0-55 31-90.5t79-35.5q77 0 196 95t248 251q-97 24-189 24zM976 422q50 178 127 367-101-184-222-339 36-9 95-28z" glyph-name="A" horiz-adv-x="1402" unicode="&#x41;"/><glyph d="M801 807q-34 0-147-220 238 18 383 96.5t145 191.5q0 94-101 150.5t-272 56.5q-166 0-314.5-53t-237.5-142.5-89-189.5q0-62 32.5-104.5t82.5-42.5q19 0 30-6t11-15q0-11-16-18.5t-46-7.5q-84 0-136 65t-52 164q0 135 97 254t268 191.5 371 72.5q233 0 377.5-94.5t144.5-247.5q0-111-81-198t-229-139q88-28 136.5-90t48.5-152q0-117-77.5-226.5t-203-177-259.5-67.5q-135 0-269 95-6-30-6-51 0-43-30-43-41 0-88 52t-47 104q0 70 89 302t194.5 438.5 144.5 206.5q54 0 108.5-45t54.5-84q0-12-5.5-19t-11.5-7zM590 458q-118-248-172-425 70-32 154-32 116 0 237.5 55t200 140.5 78.5 168.5q0 70-60 109.5t-162 39.5q-124 0-276-56z" glyph-name="B" horiz-adv-x="1300" unicode="&#x42;"/><glyph d="M681 665q0 10 24 10 59 0 126.5 61t114 156.5 46.5 185.5q-103 0-236-86.5t-243.5-211.5-187-273.5-76.5-262.5q0-101 58.5-157.5t162.5-56.5q155 0 316 124.5t277 331.5q23 41 35.5 55t24.5 14 19.5-8.5 7.5-21.5q0-14-7-28-131-262-310-420.5t-349-158.5q-162 0-280 135t-118 320q0 134 68.5 283.5t173 268 237 196.5 252.5 78q123 0 202.5-76.5t79.5-196.5q0-124-80-225t-172-101q-46 0-106 24t-60 41z" glyph-name="C" horiz-adv-x="994" unicode="&#x43;"/><glyph d="M766 805q-30 0-151-294.5t-195-514.5q27-9 58-9 96 0 224.5 76.5t239 188.5 187.5 250 77 251q0 142-118 235.5t-327 93.5q-158 0-300.5-54t-228-143.5-85.5-187.5q0-63 33-105t83-42q39 0 39-20 0-12-15.5-20t-45.5-8q-82 0-134.5 64t-52.5 162 56.5 193 149 167.5 219.5 117 261 44.5q133 0 244.5-44.5t185-121.5 114.5-180 41-219q0-152-69-305.5t-175-266.5-237.5-184-251.5-71q-107 0-196 58-2-6-2-19 0-39-30-39-42 0-93 52t-51 101q0 62 81.5 295t179 444 134.5 211q55 0 108.5-45t53.5-88q0-23-11-23z" glyph-name="D" horiz-adv-x="1332" unicode="&#x44;"/><glyph d="M836 661q19-3 37-30.5t18-53.5q0-19-10-19-9 0-32 9-52 20-137 20-133 0-256-51t-200-139-77-187q0-86 59-133t167-47q177 0 347.5 124t287.5 334q22 39 34.5 53t24.5 14 19.5-8.5 7.5-21.5q0-14-7-28-131-263-314.5-421t-366.5-158q-108 0-205.5 53.5t-157 144-59.5 190.5q0 154 137.5 265t337.5 133q-119 74-119 167 0 70 62 151t157.5 137 182.5 56 151-53 64-126q0-65-48.5-130.5t-93.5-65.5q-29 0-75.5 25t-46.5 38q0 6 9 6 29 0 84.5 72t59.5 129q-63-3-132.5-43t-115.5-97.5-46-107.5q0-54 50-101t111-72q58-23 91-28z" glyph-name="E" horiz-adv-x="970" unicode="&#x45;"/><glyph d="M1003 541q-175-456-247-573-39-62-103.5-95.5t-134.5-33.5q-71 0-114.5 31.5t-43.5 81.5q0 25 11 39t25 14q12 0 20.5-9.5t8.5-25.5 8-25.5 21-9.5q35 0 66 38 71 85 243 537-97-29-150.5-77t-53.5-110q0-26-13-26-23 0-43 38.5t-20 81.5q0 150 315 184 134 359 185 548-185-25-373.5-131t-309-248-120.5-267q0-63 30.5-99.5t81.5-36.5q43 0 43-21 0-11-17-18.5t-47-7.5q-82 0-133.5 61t-51.5 155q0 118 86 251.5t217.5 240 299.5 177 320 70.5q67 0 128.5-46t61.5-90q0-77-170-527 33 0 53.5-9.5t20.5-23.5q0-16-28.5-27t-71.5-11z" glyph-name="F" horiz-adv-x="1063" unicode="&#x46;"/><glyph d="M989-280q35 0 63.5 34t28.5 78q0 43 21 43 11 0 19-16.5t8-46.5q0-69-45-113t-125-44q-120 0-196 95t-76 220q0 31 7 73-120-97-257-97-150 0-246 115t-96 293q0 148 72 302.5t184.5 273 259 194 287.5 75.5q148 0 238.5-78t90.5-200q0-78-36.5-160t-97-136.5-121.5-54.5q-44 0-104 23.5t-60 40.5q0 11 24 11 54 0 111.5 66t95.5 168 38 199q-85 0-177.5-35t-175.5-95-158-142.5-130-173.5-87-192.5-32-196.5q0-203 151-203 109 0 213.5 102.5t177.5 308.5q3 9 15 9 38 0 113.5-71t75.5-119q0-14-7-23.5t-18-9.5q-28 0-63-64.5t-58-149-23-142.5q0-61 26.5-111t68.5-50z" glyph-name="G" horiz-adv-x="1163" unicode="&#x47;"/><glyph d="M752 410q-104-267-153-348-37-58-94.5-90t-122.5-32q-81 0-127.5 50t-46.5 135q0 121 92.5 210t249.5 127q127 340 203 626-133-23-259-95.5t-205-173.5-79-197q0-59 30.5-95.5t79.5-36.5q21 0 33-6.5t12-14.5q0-11-16.5-19t-46.5-8q-82 0-133.5 61.5t-51.5 159.5q0 101 58 202.5t150 177.5 213.5 124 241.5 48q67 0 128.5-46.5t61.5-93.5q0-42-56-214.5t-132-374.5q129 0 262-36 59 183 137 351.5t157 278.5 132 110q40 0 81-55.5t41-99.5q0-18-8-30t-21-12q-51 0-144.5-190.5t-171.5-435.5q134-81 134-175 0-51-35-107t-66-54q-18 0-18 35 0 70-61 141-53-207-53-325 0-78 23-120t65-42q40 0 69.5 33.5t29.5 78.5q0 43 21 43 11 0 18.5-17t7.5-47q0-69-45.5-112.5t-130.5-43.5q-122 0-188.5 91t-66.5 238q0 143 61 358-125 56-260 68zM523 392q-114-30-182-99.5t-68-160.5q0-43 14-67t32-24q64 0 204 351z" glyph-name="H" horiz-adv-x="1458" unicode="&#x48;"/><glyph d="M200-25q0-18 11.5-29t25.5-11q41 0 101.5 96t120.5 239.5 120 313 103.5 312.5 68.5 241q-124-40-258-150t-224-245.5-90-240.5q0-62 31-98t82-36q43 0 43-21 0-11-17-18.5t-47-7.5q-82 0-133.5 62t-51.5 160q0 89 44 193t118.5 197.5 164 171.5 188.5 124.5 183 46.5q68 0 129-46t61-90q0-79-184.5-565.5t-258.5-605.5q-39-62-103.5-96t-134.5-34q-71 0-114.5 32.5t-43.5 85.5q0 25 11 39t25 14q12 0 20.5-9.5t8.5-24.5z" glyph-name="I" horiz-adv-x="817" unicode="&#x49;"/><glyph d="M446 242q-180-54-292-165.5t-112-245.5q0-64 24-108t48-44q43 0 133 157t199 406zM696 280q-171-414-276-576-37-58-101-93.5t-131-35.5q-95 0-154.5 68.5t-59.5 178.5q0 168 139.5 301.5t361.5 185.5q97 230 177 457.5t114 375.5q-125-36-262.5-146.5t-230.5-249-93-245.5q0-62 31-98t81-36q43 0 43-21 0-11-16.5-18.5t-46.5-7.5q-83 0-134.5 61.5t-51.5 160.5q0 89 44 193t118.5 197.5 164 171.5 188.5 124.5 183 46.5q68 0 129.5-46t61.5-90q0-76-74.5-304.5t-182.5-497.5q32 0 50.5-8.5t18.5-19.5q0-29-91-29z" glyph-name="J" horiz-adv-x="854" unicode="&#x4a;"/><glyph d="M865 532q0-180 20-332.5t55.5-257.5 85.5-163.5 108-58.5q46 0 77 33t31 79q0 43 21 43 11 0 19-17t8-47q0-69-46.5-112.5t-131.5-43.5q-175 0-289.5 181t-114.5 473q-175-263-175-337 0-31-30-31-47 0-109 61.5t-62 122.5q0 87 116.5 409t208.5 486q-115-42-224-123t-181.5-187-72.5-204q0-65 31-102t82-37q43 0 43-21 0-11-17-18.5t-47-7.5q-83 0-134 63t-51 165q0 109 62.5 224t157.5 201 213 141.5 223 55.5q56 0 114-45t58-86q0-15-9-24-31-36-146.5-288.5t-184.5-451.5q96 186 256 421.5t309.5 407 205.5 171.5q37 0 84.5-68t47.5-109q0-20-16-20-8 0-22 10t-26 10q-61 0-218-167t-330-399z" glyph-name="K" horiz-adv-x="1046" unicode="&#x4b;"/><glyph d="M531-32q-39-62-103.5-95.5t-134.5-33.5q-71 0-114.5 32t-43.5 85q0 61 61 104t167 60q93 196 212 517t168 498q-123-42-255-152t-220.5-244-88.5-238q0-62 31-98t82-36q43 0 43-21 0-11-17-18.5t-47-7.5q-82 0-133.5 62t-51.5 160q0 89 44 193t118.5 197.5 164 171.5 188.5 124.5 183 46.5q68 0 129-46t61-90q0-62-129.5-417.5t-237.5-598.5q135-15 249-62.5t178-112.5 64-132q0-34-15-81t-38.5-82-42.5-34q-17 0-17 36 0 111-124 212.5t-309 137.5q-15-27-21-37zM200-38q0-11 8.5-19t20.5-8q23 0 48 29 15 18 33 51-110-15-110-53z" glyph-name="L" horiz-adv-x="1017" unicode="&#x4c;"/><glyph d="M1121 979q-195-251-391.5-585t-196.5-421q0-32-30-32-47 0-109 61.5t-62 122.5q0 87 116.5 409t208.5 486q-115-42-224-123t-181.5-187-72.5-204q0-65 31-102t82-37q43 0 43-21 0-11-17-18.5t-47-7.5q-83 0-134 63t-51 165q0 109 62.5 224t157.5 201 213 141.5 223 55.5q56 0 116.5-45.5t60.5-85.5q0-9-4-16.5t-9-7.5q-29 0-147-261t-191-487q93 187 249.5 424t305 410.5 206.5 173.5q37 0 89.5-59t52.5-101q0-17-9.5-30t-21.5-13q-38 0-121.5-147.5t-162.5-344.5-108-331q78 152 234.5 375.5t306 394.5 200.5 171q33 0 82.5-59t49.5-101q0-15-7.5-26t-19.5-11q-39 0-112-134t-142-313-120.5-372.5-51.5-300.5q0-72 23-112.5t65-40.5q40 0 69.5 33.5t29.5 78.5q0 43 21 43 11 0 19-17t8-47q0-69-46-112.5t-131-43.5q-122 0-182.5 93t-60.5 258q0 183 68.5 405.5t174.5 412.5q-171-231-322-474.5t-151-298.5q0-19-21-19-47 0-119 63.5t-72 120.5q0 113 89 343.5t191 419.5z" glyph-name="M" horiz-adv-x="1694" unicode="&#x4d;"/><glyph d="M1246-168q0 20 6.5 31.5t14.5 11.5q11 0 19-17t8-47q0-69-46-112.5t-131-43.5q-125 0-195 97t-70 272q0 205 90.5 469.5t216.5 456.5q-125-137-272-340.5t-250.5-385-103.5-245.5q0-35-32-35-49 0-114 61.5t-65 122.5q0 85 115 403t207 484q-84-32-167-87.5t-149.5-123-107.5-147-41-151.5q0-65 31-102t82-37q43 0 43-21 0-11-17-18.5t-47-7.5q-83 0-134 63t-51 165q0 109 62.5 224t157.5 201 213 141.5 223 55.5q56 0 119-45t63-82q0-11-5.5-19.5t-11.5-8.5q-31 0-155-277.5t-193-501.5q91 177 260 411t331.5 405.5 225.5 171.5q40 0 88.5-57.5t48.5-99.5q0-17-8.5-28.5t-20.5-11.5q-40 0-112.5-134.5t-141.5-315.5-120-379.5-51-314.5q0-78 23.5-120.5t65.5-42.5q40 0 69 33.5t29 78.5z" glyph-name="N" horiz-adv-x="1285" unicode="&#x4e;"/><glyph d="M86 505q0 103 48.5 212t133.5 202.5 191.5 168.5 232 118.5 244.5 43.5q226 0 367-146t141-371q0-152-69.5-303.5t-176-262.5-239.5-180-256-69q-152 0-257 99t-126 251q-16-8-46-8-83 0-135.5 68t-52.5 177zM902 951q-15-13-62.5-63t-117-135-132-176-107.5-193-45-178q0-85 37.5-130t107.5-45q93 0 220.5 78t238 192 188 255 77.5 256q0 121-85 197.5t-238 76.5q-68 0-137-15 29-22 48-47.5t19-45.5q0-16-12-27zM316 305q0 141 79.5 332.5t199.5 337.5q-177-96-296.5-238.5t-119.5-272.5q0-68 33-112t83-44q13 0 21-3z" glyph-name="O" horiz-adv-x="1417" unicode="&#x4f;"/><glyph d="M794 842q0-25-17-25-24 0-79.5-101.5t-119.5-254.5q35-8 79-8 123 0 254 54t220.5 145.5 89.5 186.5q0 110-116.5 181t-298.5 71q-161 0-313-56t-245.5-147.5-93.5-187.5q0-58 33.5-99t81.5-41q40 0 40-21 0-11-16-19t-45-8q-81 0-134 62.5t-53 157.5q0 130 101 252.5t269 199 352 76.5q244 0 400.5-131t156.5-323q0-82-31.5-158t-86-134.5-125.5-102-153.5-66.5-165.5-23q-127 0-234 54-136-347-136-464 0-44-30-44-42 0-91 53t-49 107q0 69 80 300t176 437 135 206q55 0 110-44.5t55-84.5z" glyph-name="P" horiz-adv-x="1262" unicode="&#x50;"/><glyph d="M1444 733q0-157-73-312t-188-270-249-177q36-123 87-189t113-66q46 0 77 33.5t31 79.5q0 43 21 43 11 0 19-17t8-47q0-69-46.5-112.5t-131.5-43.5q-106 0-191 70.5t-139 199.5q-47-7-79-7-152 0-257 99t-126 251q-16-8-46-8-83 0-135.5 67.5t-52.5 176.5q0 127 75.5 262.5t194 241.5 274.5 174 306 68q228 0 368-147t140-370zM894 156q173 126 302 311.5t129 336.5q0 125-93 203.5t-248 78.5q-68 0-137-15 30-22 48.5-47.5t18.5-46.5q0-15-12-26-15-13-62.5-63t-117-135-132-176-107.5-193-45-178q0-78 43.5-126.5t119.5-48.5q60 0 137 33-31 136-31 298 0 36 29.5 92.5t65 98 53.5 41.5q10 0 10-18 0-237 29-420zM316 305q0 141 79.5 332.5t199.5 337.5q-177-96-296.5-238.5t-119.5-272.5q0-68 33-112t83-44q13 0 21-3z" glyph-name="Q" horiz-adv-x="1417" unicode="&#x51;"/><glyph d="M1327 796q0-126-71-232.5t-183.5-170-241.5-77.5q22-294 135-470.5t278-176.5q69 0 110 31t41 82q0 20 6.5 31.5t15.5 11.5q11 0 18.5-14.5t7.5-42.5q0-75-63-119t-173-44q-157 0-285.5 89.5t-208 255.5-90.5 381q-46 11-93 35-141-336-141-411 0-14 10-14 13 0 13-11t-14-22-33-11q-45 0-93 55t-48 108q0 68 80 288.5t176.5 416.5 135.5 196q54 0 109-45t55-84q0-26-15-26-21 0-76.5-102t-121.5-253q35-8 78-8 123 0 254 54t220 145.5 89 186.5q0 110-116 181t-298 71q-161 0-313-56t-246-147.5-94-187.5q0-58 33.5-99t81.5-41q40 0 40-21 0-11-15.5-19t-44.5-8q-81 0-134.5 63t-53.5 158q0 97 60.5 193.5t158.5 169.5 231.5 118.5 271.5 45.5q244 0 400.5-131t156.5-323z" glyph-name="R" horiz-adv-x="1248" unicode="&#x52;"/><glyph d="M546 615q55 0 122 74t112.5 179.5 45.5 190.5q-103 0-212-70.5t-179.5-176-70.5-202.5q0-36 12-66.5t27-51 45.5-43 50-34 57.5-31.5q48-26 71-40.5t55-41.5 46-59.5 14-73.5q0-93-74.5-183t-191.5-145-236-55q-118 0-187 54.5t-69 143.5q0 65 30.5 139.5t56.5 74.5q7 0 14-5.5t7-14.5q0-8-8-30-19-52-19-96 0-104 91-104 87 0 187.5 43.5t168.5 107.5 68 118q0 23-12 43t-39.5 40-50.5 33-65 34q-41 21-60.5 32t-56 33-55.5 41-41 46-31.5 58-9.5 67q0 108 86.5 239.5t215.5 223 240 91.5q103 0 177-77.5t74-185.5q0-75-34.5-167.5t-91-160-112.5-67.5q-39 0-113.5 24t-74.5 41q0 10 20 10z" glyph-name="S" horiz-adv-x="866" unicode="&#x53;"/><glyph d="M1217 1086q-1-5-12-15-74-76-166-227t-171-321.5-132.5-347.5-53.5-294q0-77 23-119.5t65-42.5q40 0 69.5 34t29.5 79q0 43 21 43 11 0 19-17t8-47q0-69-46-112.5t-131-43.5q-120 0-182 86t-62 222q0 190 109 498.5t246 552.5q-106-28-200-62.5t-182-80.5-151-97.5-100.5-116-37.5-133.5q0-64 30-102t81-38q44 0 44-21 0-11-16.5-18.5t-46.5-7.5q-83 0-134.5 61.5t-51.5 160.5q0 94 52 181.5t137.5 156 202.5 128.5 240 103 257 76q57 71 91 71 25 0 67-37 206 39 361 39 135 0 212-32t77-92q0-30-17-75t-42-79-44-33q-16 0-16 27 0 52-64 79.5t-181 27.5q-82 0-202-14z" glyph-name="T" horiz-adv-x="1014" unicode="&#x54;"/><glyph d="M1059-118q0-77 23.5-119.5t65.5-42.5q40 0 69 33.5t29 78.5q0 20 6.5 31.5t14.5 11.5q11 0 19-17t8-47q0-69-46-112.5t-131-43.5q-123 0-185 93.5t-62 261.5q0 181 67 406-45-93-81.5-163.5t-81.5-144-84-120.5-82.5-77-83.5-30q-85 0-133 60.5t-48 162.5q0 160 106 455.5t207 461.5q-117-42-227-127.5t-180-192-70-199.5q0-62 31-98.5t82-36.5q43 0 43-21 0-11-17-18.5t-47-7.5q-83 0-134 62.5t-51 162.5q0 106 60.5 219.5t153.5 202 212 146 230 57.5q56 0 119-44.5t63-81.5q0-11-5.5-19t-12.5-8q-34 0-129-191t-178-429-83-348q0-39 11-60t29-21q59 0 204 259 54 96 174 328 42 81 64.5 124t61.5 117 63.5 115.5 58.5 99 57.5 89.5 50 64 48 46 39.5 14q39 0 89-57.5t50-98.5q0-16-9.5-28.5t-22.5-12.5q-39 0-111.5-134.5t-141.5-315.5-120.5-380-51.5-315z" glyph-name="U" horiz-adv-x="1302" unicode="&#x55;"/><glyph d="M742 1170q56 0 118.5-45t62.5-82q0-10-5-18t-11-8q-34 0-165-293.5t-204-529.5q95 186 277.5 443t354 447.5 230.5 190.5q37 0 84.5-68t47.5-109q0-20-16-20-9 0-22.5 10t-25.5 10q-56 0-206-161t-301.5-364.5-269.5-396.5-118-252q0-31-28-31-49 0-131.5 87t-82.5 154q0 83 116.5 403t207.5 482q-115-42-223-122.5t-180.5-186.5-72.5-204q0-65 31-102t82-37q43 0 43-21 0-11-17-18.5t-47-7.5q-83 0-134 63t-51 165q0 109 62.5 224t157.5 201 213 141.5 223 55.5z" glyph-name="V" horiz-adv-x="987" unicode="&#x56;"/><glyph d="M1309 875q0-18-8.5-30t-20.5-12q-32 0-82.5-103t-96-248-65.5-266q81 175 252.5 428t336.5 442 225 189q38 0 85.5-68t47.5-109q0-20-16-20-8 0-22 10t-27 10q-56 0-198-149.5t-284-339.5-252-371-110-238q0-24-25-24-54 0-139 63.5t-85 120.5q0 115 50 292t115 315q-168-208-312.5-456.5t-144.5-333.5q0-36-30-36-47 0-109.5 61.5t-62.5 122.5q0 87 116 408.5t208 485.5q-115-42-223-122.5t-180.5-186.5-72.5-204q0-65 31-102t82-37q43 0 43-21 0-11-17-18.5t-47-7.5q-83 0-134 63t-51 165q0 109 62.5 224t157.5 201 213 141.5 223 55.5q56 0 119-45t63-82q0-11-5.5-19.5t-11.5-8.5q-28 0-142.5-250.5t-188.5-476.5q79 156 198 330t233 296.5 167 122.5q40 0 87.5-58.5t47.5-103.5z" glyph-name="W" horiz-adv-x="1439" unicode="&#x57;"/><glyph d="M1425-125q11 0 18.5-17t7.5-47q0-69-47-112.5t-136-43.5q-176 0-312.5 176.5t-212.5 494.5q-232-280-232-356 0-30-31-30-25 0-40.5 21t-15.5 51q0 128 285 488-44 266-44 522-116-40-227-121t-185-188.5-74-206.5q0-65 31-102t82-37q43 0 43-21 0-11-17-18.5t-47-7.5q-83 0-134 63t-51 165q0 109 62.5 224t157.5 201 213 141.5 223 55.5q61 0 112-55.5t51-99.5q0-121 7-273 195 220 367.5 376.5t226.5 156.5q38 0 85.5-68t47.5-109q0-20-16-20-9 0-22.5 10t-25.5 10q-61 0-249-166.5t-399-395.5q38-381 132.5-599t226.5-218q52 0 85 33t33 80q0 43 21 43z" glyph-name="X" horiz-adv-x="1162" unicode="&#x58;"/><glyph d="M1037 670q-96-178-206-288t-219-110q-82 0-133 61.5t-51 161.5q0 115 37 262t87 247q-151-71-262-213.5t-111-278.5q0-69 31-107t82-38q43 0 43-21 0-11-17-18.5t-47-7.5q-83 0-134 64.5t-51 175.5q0 108 51.5 219.5t132.5 197 187 139.5 209 54q56 0 117.5-44t61.5-84q0-13-7.5-24t-15.5-11q-23 0-73-108t-91.5-245.5-41.5-209.5q0-85 55-85 53 0 136 95t158 227.5 129.5 285.5 54.5 257q0 32 27 32 44 0 123-67t79-101q0-75-70.5-290t-173.5-468q34 0 53-8.5t19-19.5-19.5-19.5-56.5-8.5q-12 0-19-1-164-394-275-569-37-58-101-93.5t-132-35.5q-93 0-152 67t-59 175q0 167 139 300t360 185q79 184 146 368zM531-321q43 0 133.5 156t197.5 400q-180-54-292.5-165t-112.5-243q0-64 24.5-106t49.5-42z" glyph-name="Y" horiz-adv-x="1273" unicode="&#x59;"/><glyph d="M574 240q-132-37-236.5-100.5t-169-151.5-64.5-184q0-55 19.5-90t50.5-35q36 0 89 53t108.5 137.5 107.5 180.5 95 190zM847 280q-49-138-140.5-308t-177.5-270q-49-57-125.5-92t-149.5-35q-99 0-158.5 64.5t-59.5 167.5q0 114 77.5 217t204.5 174.5 284 107.5q53 127 53 175 0 18-16 18-34 0-113.5-37.5t-113.5-69.5q-14-13-29-13-34 0-96 19.5t-62 34.5q0 6 25 28 111 95 302.5 302.5t262.5 324.5q-178-18-331-71t-244.5-128.5-91.5-154.5q0-48 31.5-81t80.5-33q43 0 43-21 0-10-16.5-18t-46.5-8q-81 0-133 57.5t-52 137.5q0 117 118 220.5t315.5 165.5 419.5 62q67 0 128.5-45t61.5-84q0-52-133.5-190.5t-364.5-325.5q131 0 205-45t74-112q0-27-14-77 33 0 52.5-8.5t19.5-18.5q0-12-26.5-21t-63.5-9z" glyph-name="Z" horiz-adv-x="970" unicode="&#x5a;"/><glyph d="M337-262q-32 16-123 16-24 0-61.5-8.5t-44.5-8.5q-24 0-36.5 30.5t-12.5 82.5q0 112 94.5 469.5t201 669 137.5 311.5q17 0 50.5-8.5t55.5-8.5q91 0 123 16 14 6 21 6 14 0 32.5-36.5t18.5-52.5q0-33-137-33-45 0-78 5-62-145-208.5-644t-180.5-696q31 6 83 6 137 0 137-34 0-15-18.5-51.5t-32.5-36.5q-10 0-21 6z" glyph-name="bracketleft" horiz-adv-x="604" unicode="&#x5b;"/><glyph d="M597-342q-26 0-26 33 0 59-99.5 293t-228 489-259.5 458-186 203q-30 0-30 49 0 44 26 86t66 42q55 0 195.5-203.5t281.5-463 251-511 110-339.5q0-36-36-86t-65-50z" glyph-name="backslash" horiz-adv-x="624" unicode="&#x5c;"/><glyph d="M208 1217q0 15 18.5 51.5t32.5 36.5q11 0 21-6 32-16 123-16 24 0 61.5 8.5t44.5 8.5q24 0 36.5-30.5t12.5-82.5q0-112-94.5-469.5t-201-669-137.5-311.5q-17 0-51 8.5t-56 8.5q-91 0-123-16-14-6-21-6-14 0-32.5 36.5t-18.5 52.5q0 33 137 33 44 0 79-5 62 144 208.5 643.5t180.5 696.5q-31-6-83-6-137 0-137 34z" glyph-name="bracketright" horiz-adv-x="604" unicode="&#x5d;"/><glyph d="M324 679q26 15 132 266 27 62 42 97t35 78 33 62.5 21 19.5q22 0 125-256 101-250 127-267 11-5 11-23 0-27-28.5-69.5t-47.5-42.5q-9 0-20.5 12t-25 37.5-26 51-29 66.5-28 69.5-28.5 74.5q-22 58-31 87-12-28-38-92-28-70-45-111t-41-93-42-77-32-25q-19 0-47 42t-28 69q0 18 11 24z" glyph-name="asciicircum" horiz-adv-x="963" unicode="&#x5e;"/><glyph d="M484 86q391 0 404-28 1-2 1-5 0-22-22-68.5t-35-46.5q-5 0-9 2-38 15-346 15-407 0-461-26-5-2-9-2-7 0-7 10 0 23 27 68t51 56q55 25 406 25z" glyph-name="underscore" horiz-adv-x="1092" unicode="&#x5f;"/><glyph d="M470 893q0 25-83 118.5t-83 113.5q0 21 42 58.5t65 37.5q13 0 13-15 0-21 55-121.5t55-146.5q0-19-23-36t-35-17q-6 0-6 8z" glyph-name="grave" horiz-adv-x="598" unicode="&#x60;"/><glyph d="M547 0q-77 0-140.5 35t-63.5 74q0 48 14 115-56-106-104.5-165t-92.5-59-119 46.5-75 77.5q0 128 50 257.5t125 210 145 80.5q46 0 118-25.5t81-56.5q54 82 83 82 27 0 96.5-39t69.5-65q0-8-6.5-15t-15.5-7q-29 0-71.5-85.5t-72.5-190-30-160.5q0-18 3-18 9 0 145.5 193.5t161.5 234.5q22 35 48 35 10 0 17.5-6t6.5-13q-1-21-86.5-154t-177.5-257.5-109-124.5zM476 576q-77 0-151.5-72t-122-192.5-47.5-250.5q53 20 200 302 65 126 121 213z" glyph-name="a" horiz-adv-x="744" unicode="&#x61;"/><glyph d="M508 955q0-14-9-14-26 0-148-250.5t-201-456.5q58 105 118 198t127 166.5 108 73.5q38 0 100-47.5t62-77.5q0-123-53-251.5t-136-212-163-83.5q-40 0-92 19t-80 41q-11-34-22.5-47t-29.5-13q-43 0-98.5 45t-55.5 82q0 46 82 269.5t178.5 432 129.5 208.5q39 0 111-29t72-53zM154 95q77 0 154.5 76.5t127 197 49.5 239.5q-43-30-167.5-224t-163.5-289z" glyph-name="b" horiz-adv-x="706" unicode="&#x62;"/><glyph d="M159 155q0-40 11.5-55t35.5-15q42 0 99.5 41.5t109.5 99 102.5 124 80.5 111.5 42 66q16 28 32 28 11 0 20-11t9-26q0-9-7-25-3-8-32-54.5t-85-122-119-145-140.5-120.5-143.5-51q-80 0-140.5 64.5t-60.5 164.5q0 94 53 198t136.5 174.5 162.5 70.5q70 0 130-50t60-108q0-20-7.5-30.5t-17.5-10.5q-14 0-14 15 0 14-14.5 22.5t-34.5 8.5q-54 0-117-56t-107-142.5-44-165.5z" glyph-name="c" horiz-adv-x="529" unicode="&#x63;"/><glyph d="M902 532q-3-35-175.5-283.5t-198.5-248.5q-77 0-140.5 35t-63.5 74q0 31 6 68-100-177-170-177-44 0-119 46.5t-75 77.5q0 129 50.5 258t128.5 209.5 155 80.5q35 0 83.5-17t77.5-38q43 105 68 162.5t57.5 126.5 56 100 40.5 31q26 0 104-37t78-62q0-13-12-13-33 0-115-177.5t-150-378-68-263.5q0-14 3-14 9 0 143.5 189t163.5 235q20 35 48 35 10 0 17-5.5t7-13.5zM155 60q19 4 41.5 26t47.5 62.5 47.5 83 51.5 107 49.5 113.5 51.5 123q-70-6-137-79.5t-109.5-191.5-42.5-244z" glyph-name="d" horiz-adv-x="725" unicode="&#x64;"/><glyph d="M525 515q0-65-42-126t-95-94.5-94-33.5q-29 0-64 16t-35 26q0 7 20 7 34 0 79 25.5t84.5 75 47.5 107.5q-53-6-115.5-61t-106-134-43.5-145q0-43 19.5-68t53.5-25q52 0 124.5 59.5t136 141 108 146 59.5 93.5q16 30 33 30 12 0 20.5-11t8.5-26q0-13-6-25-8-16-35.5-60.5t-83.5-122-116.5-144-137-116.5-141.5-50q-86 0-157 73t-71 174q0 88 55.5 188.5t140.5 168.5 162 68q68 0 129.5-49t61.5-108z" glyph-name="e" horiz-adv-x="552" unicode="&#x65;"/><glyph d="M382 1037q24 0 99.5-36.5t75.5-61.5q0-8-8-16t-15-8q-30 0-102-129.5t-159-326.5q91 10 154 40 24 12 42 12 12 0 18-6t6-14q0-25-54-52t-124-42q30-47 42.5-152t12.5-182q0-179-92.5-303.5t-224.5-124.5q-75 0-133.5 67.5t-58.5 153.5q0 88 68.5 288t156.5 396 175 346.5 121 150.5zM41-212q0-57 55-57 76 0 137 105t61 271q0 151-51 263-3 6-4 10-84-198-141-366t-57-226z" glyph-name="f" horiz-adv-x="479" unicode="&#x66;"/><glyph d="M300 672q49 0 114.5-29.5t70.5-52.5q54 82 83 82 26 0 87-37.5t61-61.5q0-8-5.5-16t-11.5-8q-28 0-111-294-87-309-138-405-53-101-147-158t-183-57q-77 0-121 44t-44 113q0 30 7.5 46t18.5 16q21 0 21-42 0-46 31-79.5t75-33.5q60 0 116.5 65.5t90.5 166 34 199.5q0 38 4 70-120-200-195-200-43 0-117.5 46.5t-74.5 77.5q0 129 50.5 258t128.5 209.5 155 80.5zM458 576q-72 0-142.5-72t-115.5-193-45-250q31 11 77.5 86t121.5 215q80 150 123 216-10-2-19-2z" glyph-name="g" horiz-adv-x="711" unicode="&#x67;"/><glyph d="M669 564q0-7-4-13t-9-6q-19 0-60.5-85t-76-191.5-34.5-160.5q0-16 3-16 9 0 145.5 193.5t161.5 234.5q22 35 48 35 10 0 17.5-6t6.5-13q-1-21-86.5-154t-177.5-257.5-108-124.5q-77 0-140.5 35t-63.5 74q0 70 32 184t73 204q-102-127-187.5-275.5t-85.5-200.5q0-21-18-21-36 0-100.5 39.5t-64.5 81.5q0 50 77.5 274t173 433 134.5 209q46 0 110-31.5t64-55.5q0-13-11-13-31 0-133.5-214t-182.5-431q82 141 181.5 260.5t141.5 119.5q30 0 102-39.5t72-68.5z" glyph-name="h" horiz-adv-x="691" unicode="&#x68;"/><glyph d="M153 0q-79 0-146.5 37t-67.5 83q0 63 90 307.5t122 244.5q44 0 104.5-38t60.5-67q0-15-10-15-26 0-93.5-202t-67.5-247q0-11 3-11 9 0 146 189t162 230q20 34 47 34 10 0 17.5-6t6.5-13q-1-21-87-151.5t-178-252.5-109-122zM331 697q-60 0-99 32t-39 81q0 63 52 145t93 82q30 0 87.5-38t57.5-60q0-5-4.5-10t-10.5-5q-26 0-63.5-78.5t-37.5-128.5q0-7-1.5-10.5t-10-6.5-24.5-3z" glyph-name="i" horiz-adv-x="351" unicode="&#x69;"/><glyph d="M-49 110q13 105 52.5 238.5t85.5 228.5 74 95q22 0 82-42t60-62q0-6-4.5-12t-10.5-6q-20 0-48-80.5t-69-226.5q-80-297-131-394-52-99-146.5-156.5t-182.5-57.5q-77 0-121 44t-44 113q0 30 7.5 46t18.5 16q21 0 21-42 0-46 30.5-79t74.5-33q84 0 157 121t94 289zM182 810q0 63 52 145t93 82q30 0 87.5-38t57.5-60q0-5-4.5-10t-10.5-5q-26 0-63.5-78.5t-37.5-128.5q0-7-1.5-10.5t-10-6.5-24.5-3q-60 0-99 32t-39 81z" glyph-name="j" horiz-adv-x="300" unicode="&#x6a;"/><glyph d="M483 92q9 0 143.5 189t163.5 235q20 35 48 35 10 0 17-5.5t7-13.5q-3-35-175.5-283.5t-198.5-248.5q-93 0-174 73t-97 168q-96-163-96-220 0-21-18-21-35 0-99.5 40t-64.5 81q0 49 81.5 273.5t179 433.5 132.5 209q44 0 109-30.5t65-50.5q0-5-4.5-10t-9.5-5q-30 0-133-212.5t-185-428.5q84 141 183 256.5t145 115.5q30 0 95.5-41t65.5-62q0-47-41.5-126t-106.5-143.5-119-64.5q0-52 26-97.5t61-45.5zM263 314q11-7 21-7 29 0 71 49.5t72 111 30 94.5q0 8-1 8-97-105-193-256z" glyph-name="k" horiz-adv-x="685" unicode="&#x6b;"/><glyph d="M508 937q0-6-5-12t-11-6q-33 0-120-176.5t-160.5-376-73.5-260.5q0-14 3-14 9 0 146 189t162 229q20 34 47 34 10 0 17.5-6t6.5-13q-1-21-86.5-151t-177.5-252-109-122q-79 0-141.5 38t-62.5 88q0 59 78 281.5t173 426 134 203.5q24 0 102-37.5t78-62.5z" glyph-name="l" horiz-adv-x="344" unicode="&#x6c;"/><glyph d="M515 185q74 153 200.5 320t176.5 167q30 0 102.5-39.5t72.5-68.5q0-7-4.5-12.5t-10.5-5.5q-23 0-68-84.5t-81-191.5-36-162q0-16 3-16 9 0 147 189.5t161 228.5q21 33 47 33 10 0 17.5-6t6.5-13q-1-21-86.5-151t-177.5-251.5-110-121.5q-76 0-140 35t-64 74q0 67 35 177t80 203q-99-125-180.5-267t-81.5-190q0-13-6-22.5t-14-9.5q-77 0-140.5 35t-63.5 74q0 67 34.5 177.5t79.5 202.5q-103-128-188-272.5t-85-195.5q0-21-18-21-38 0-109.5 41t-71.5 86q0 63 93 304t128 241q40 0 109.5-29t69.5-55q0-12-9-12-17 0-61-89.5t-83-199.5q84 141 186 263t144 122q31 0 103-39.5t72-68.5q0-7-4-12.5t-10-5.5q-28 0-82-120.5t-83-240.5z" glyph-name="m" horiz-adv-x="1073" unicode="&#x6d;"/><glyph d="M690 568q0-8-6.5-15.5t-13.5-7.5q-23 0-64.5-85t-73-191-31.5-160q0-17 3-17 9 0 145.5 193.5t161.5 235.5q22 35 48 35 10 0 17.5-6t6.5-13q-2-34-174-285.5t-196-251.5q-77 0-144.5 35t-67.5 74q0 69 33.5 181t76.5 203q-101-127-185.5-274t-84.5-198q0-21-18-21-38 0-109.5 41.5t-71.5 87.5q0 38 41.5 169.5t96 252.5 84.5 121q39 0 107-29.5t68-55.5q0-11-8-11-22 0-65.5-90t-82.5-206q82 143 184.5 267.5t145.5 124.5q29 0 103-39t74-65z" glyph-name="n" horiz-adv-x="706" unicode="&#x6e;"/><glyph d="M177 160q0-75 42-75 55 0 121 93.5t93 201.5q-47 15-78.5 47.5t-36.5 72.5q-58-61-99.5-159.5t-41.5-180.5zM444 467q0 68-27 68-10 0-17-9.5t-7-24.5q0-41 50-62 1 10 1 28zM498 369q-29-143-126-256t-198-113q-78 0-134.5 67.5t-56.5 162.5q0 90 52 197.5t128 181 139 73.5q79 0 155-42.5t76-87.5q0-14-8-23t-16-9q-4 0-8 2 6-27 6-64 0-20-1-30 60 0 112 31.5t75 82.5q14 31 33 31 23 0 23-34 0-61-81-115.5t-170-54.5z" glyph-name="o" unicode="&#x6f;"/><glyph d="M504 671q38 0 100-47t62-77q0-129-50.5-257.5t-128.5-209-155-80.5q-45 0-104.5 24.5t-76.5 47.5q-58-119-96.5-227.5t-38.5-148.5q0-21 11-21 10 0 10-13 0-23-29-23-45 0-114 47t-69 81q0 35 70 257.5t150 434.5 103 212q48 0 117-31.5t69-53.5q0-10-8-10-14 0-55.5-90.5t-79.5-202.5q54 100 106.5 181.5t110.5 144 96 62.5zM162 95q81 4 156 77t121.5 191.5 46.5 245.5q-37-27-151.5-214.5t-172.5-299.5z" glyph-name="p" horiz-adv-x="711" unicode="&#x70;"/><glyph d="M517-147q20 40 46 40 11 0 19-7.5t8-17.5q0-35-68.5-134t-94.5-99q-77 0-140.5 35t-63.5 74q0 95 108 434-101-178-172-178-44 0-119 46.5t-75 77.5q0 129 50.5 257.5t128.5 209 155 80.5q51 0 116.5-30t68.5-53q55 83 83 83 27 0 85-38.5t58-67.5q0-16-10-16-22 0-91.5-179.5t-129.5-382.5-60-263q0-10 2-10 7 0 44.5 54.5t51.5 84.5zM477 578q-8-2-17-2-73 0-144-72t-116.5-192.5-45.5-250.5q17 6 39 31.5t52 76 51 87 59 108.5q79 146 122 214z" glyph-name="q" horiz-adv-x="695" unicode="&#x71;"/><glyph d="M587 353q10 0 94.5 80t107.5 108q24 28 44 28 8 0 15.5-6t8.5-12q1-28-117.5-148t-147.5-120q-38 0-87 18.5t-83 44.5-34 46q0 45 17 91-100-126-181.5-269t-81.5-193q0-21-18-21-38 0-109.5 41.5t-71.5 86.5q0 62 92 302.5t127 240.5q40 0 109-29.5t69-55.5q0-11-7-11-15 0-56-84t-81-190q84 140 180 255t137 115q31 0 103.5-40t72.5-70q0-9-6.5-16.5t-14.5-7.5q-25 0-54.5-64t-29.5-109q0-11 3-11z" glyph-name="r" horiz-adv-x="673" unicode="&#x72;"/><glyph d="M281 229q70-118 70-165t-50-99-112.5-83.5-104.5-31.5q-55 0-115.5 49t-60.5 113q0 107 188 192 13 6 45 22-50 56-81 113.5t-31 94.5q0 50 53 118t125.5 117.5 124.5 49.5q56 0 118.5-49t62.5-110q0-41-24-41-15 0-15 17 0 12-13 21.5t-29 9.5q-31 0-84-36.5t-94-85-41-78.5q0-25 35-84 106 59 221 131t163 107q33 26 49 26 10 0 17.5-7.5t7.5-18.5q0-22-23-39-44-32-166.5-110t-235.5-143zM-5-19q48 0 121.5 49.5t73.5 94.5q0 19-14 45-19-10-53-27-84-41-123-76.5t-39-59.5q0-26 34-26z" glyph-name="s" horiz-adv-x="508" unicode="&#x73;"/><glyph d="M338 672h51q29 0 45-10t16-24-16-24-45-10h-81q-68-159-118.5-305t-50.5-193q0-14 3-14 9 0 146 190.5t162 231.5q20 34 47 34 10 0 17.5-6t6.5-13q-1-21-86.5-152t-178-254-109.5-123q-79 0-141.5 38t-62.5 88q0 42 44 180t106 298h-25q-29 0-45.5 10t-16.5 24 16.5 24 45.5 10h53q150 365 205 365 24 0 99-37t75-60q0-7-6-14t-12-7q-34 0-144-247z" glyph-name="t" horiz-adv-x="345" unicode="&#x74;"/><glyph d="M507 0q-77 0-140.5 35t-63.5 74q0 35 7 73-102-182-173-182-46 0-120 49t-74 89q0 33 44.5 162.5t102 250.5 86.5 121q47 0 108.5-29.5t61.5-52.5q0-11-9-11-20 0-70-104t-92.5-231-42.5-183q16 6 38 31.5t52 75 51.5 87.5 58.5 108q40 74 63.5 115.5t55.5 93.5 55 75.5 39 23.5q27 0 85-39t58-68q0-7-4.5-13t-9.5-6q-22 0-65-86t-77.5-192-34.5-159q0-16 3-16 9 0 145 194.5t162 236.5q22 35 48 35 10 0 17-5.5t7-13.5q-2-21-87.5-154.5t-177-259-107.5-125.5z" glyph-name="u" horiz-adv-x="702" unicode="&#x75;"/><glyph d="M163 149q40 107 134.5 259t192 265 141.5 113q24 0 53.5-29.5t29.5-54.5q0-10-10-10-6 0-17 3.5t-16 3.5q-42 0-152.5-142t-204-307.5-93.5-226.5q0-13-5.5-18t-20.5-5q-61 0-147 52t-86 94q0 53 35 181.5t77 236 58 107.5q45 0 112.5-31t67.5-54q0-11-9-11-24 0-70-147.5t-70-278.5z" glyph-name="v" horiz-adv-x="493" unicode="&#x76;"/><glyph d="M608 525q0-12-9-12-18 0-53-126t-53-241q37 107 127 259.5t184.5 267 137.5 114.5q22 0 54-26.5t45-48.5q5-8 5-12 0-6-9-6-6 0-18 3.5t-18 3.5q-49 0-159-142.5t-199-308-89-226.5q0-14-6-19t-22-5q-40 0-95.5 25.5t-95.5 60.5-40 61q0 71 44 210-60-100-101.5-196t-41.5-147q0-5-1-7.5t-5.5-4.5-13.5-2q-59 0-135.5 51.5t-76.5 94.5q0 53 34 181.5t74.5 236 56.5 107.5q46 0 112.5-31t66.5-54q0-11-9-11-25 0-66.5-137t-66.5-274q47 129 153 287.5t135 158.5q44 0 99-31t55-54z" glyph-name="w" horiz-adv-x="819" unicode="&#x77;"/><glyph d="M343 351q24-105 52-182t46-77q9 0 146 192t161 232q22 35 48 35 10 0 17.5-6t6.5-13q-1-21-87-153t-178-255.5-109-123.5q-90 0-176 46.5t-110 107.5q-2 3-4 12-178-192-178-254 0-24-28-24-22 0-35.5 12.5t-13.5 33.5q0 46 64 135t168 197q-17 91-33.5 209.5t-16.5 142.5q0 28 27 40.5t64 12.5q48 0 103.5-17t55.5-33q0-5-5.5-10t-9.5-5q-10 0-10-34 0-47 14-123 110 98 197.5 160t119.5 62q22 0 46-25t24-50q0-8-10-8-6 0-17.5 3.5t-16.5 3.5q-28 0-119.5-70t-202.5-174z" glyph-name="x" horiz-adv-x="644" unicode="&#x78;"/><glyph d="M682 555q-30 0-119-315-84-295-133-390-53-100-148-157.5t-183-57.5q-77 0-121.5 44t-44.5 113q0 30 8 46.5t19 16.5q8 0 14.5-11.5t6.5-31.5q0-45 30.5-79t74.5-34q60 0 116.5 65t91 167.5 34.5 208.5q0 27 3 54-120-194-195-194-45 0-118 49t-73 89q0 56 90 295t125 239q46 0 113.5-31t67.5-54q0-8-7-8-19 0-68-104.5t-91-231.5-42-183q31 11 78 86.5t123 217.5q38 72 62 115t55.5 93.5 55 75 40.5 24.5q26 0 86-38t60-63q0-16-11-16z" glyph-name="y" horiz-adv-x="691" unicode="&#x79;"/><glyph d="M459 14q0-120-106-198t-269-78q-79 0-126 42.5t-47 113.5q0 30 8 46.5t19 16.5q21 0 21-44 0-50 32.5-81t84.5-31q79 0 127 44t48 115q0 53-62 85t-165 32q0 73 85.5 197.5t190.5 241.5q-47-15-104-15-50 0-90 22t-40 51q0 16 23 16 95 0 167 30 126 52 171 52 40 0 102-39t62-65q0-7-5.5-13.5t-10.5-6.5q-24 0-142-141t-168-229q82 0 138-51t56-113z" glyph-name="z" horiz-adv-x="556" unicode="&#x7a;"/><glyph d="M316 360q-44-133-70.5-254t-26.5-187q0-74 30.5-134.5t76.5-60.5q16 0 24.5-7.5t8.5-17.5q0-16-18-27.5t-56-11.5q-99 0-158.5 81.5t-59.5 202.5q0 74 22 187t59 227q4 12 4 27 0 46-32.5 91t-67.5 45q-22 0-22 21 0 28 17 28 60 0 121.5 23t74.5 56q260 656 497 656 35 0 52-11.5t17-27.5q0-25-34-25t-72.5-35.5-72.5-89-74.5-140-72-164-72.5-186.5q-18-48-74.5-77.5t-131.5-29.5q54-25 84.5-61t30.5-73q0-14-4-25z" glyph-name="braceleft" horiz-adv-x="606" unicode="&#x7b;"/><glyph d="M544 1275q25 0 68-47t43-81q0-16-7-21-22-18-118-315t-184-621-88-402q0-42-22-42t-61.5 34.5-39.5 67.5q0 161 160.5 714t224.5 688q12 25 24 25z" glyph-name="bar" horiz-adv-x="604" unicode="&#x7c;"/><glyph d="M459 492q-54 25-84.5 61t-30.5 73q0 14 4 25 79 240 79 384 0 81-30.5 143.5t-76.5 62.5q-16 0-24.5 7.5t-8.5 17.5q0 16 18 27.5t56 11.5q100 0 159-85t59-220q0-150-63-347-4-12-4-27 0-46 32.5-91t67.5-45q22 0 22-21 0-28-17-28-60 0-121.5-23t-74.5-56q-278-702-517-702-33 0-49.5 12t-16.5 27q0 25 32 25 35 0 75.5 40.5t77 100 80 154 76 175.5 74.5 191q18 48 74.5 77.5t131.5 29.5z" glyph-name="braceright" horiz-adv-x="713" unicode="&#x7d;"/><glyph d="M275 247q0-17 17.5-30t38.5-20 38.5-17 17.5-21q0-18-38-18-58 0-106 41.5t-48 90.5q0 55 64 90t162 35q91 0 259-47.5t246-47.5q75 0 75 38 0 17-18.5 31.5t-40.5 22.5-40.5 18-18.5 19q0 8 12.5 13.5t30.5 5.5q53 0 101.5-46.5t48.5-95.5q0-51-59.5-82t-153.5-31q-92 0-262 46.5t-249 46.5q-35 0-56-11.5t-21-30.5z" glyph-name="asciitilde" horiz-adv-x="1235" unicode="&#x7e;"/><glyph d="M12-179q59 59 207 373.5t148 379.5q0 22 22 22 23 0 48-20t25-45q0-74-63-278t-137.5-378.5-103.5-174.5q-57 0-107.5 31t-50.5 65q0 13 12 25zM374 736q0 9 10 19 15 13 28.5 38.5t13.5 39.5q0 26 41 26 37 0 62-25.5t25-63.5q0-35-20-63.5t-45-28.5q-41 0-77.5 18t-37.5 40z" glyph-name="exclamdown" horiz-adv-x="605" unicode="&#xa1;"/><glyph d="M517 473q-14 0-14 15 0 14-14 22.5t-34 8.5q-102-247-159-425 36 12 63.5 37t27.5 48q0 21 19 21 10 0 18-7t8-18q0-62-45.5-109.5t-117.5-60.5q-26-98-26-141 0-47-23-47-28 0-28 68 0 42 13 115-92 5-148.5 67.5t-56.5 158.5q0 95 53 200t136.5 175.5 162.5 70.5q47 0 88-23 69 135 94 135 7 0 12-11t5-27q0-35-34-89-6-9-23-46 48-48 48-97 0-20-7.5-30.5t-17.5-10.5zM363 483q-70-50-123.5-141.5t-53.5-172.5q0-65 39-80 48 186 138 394z" glyph-name="cent" horiz-adv-x="534" unicode="&#xa2;"/><glyph d="M389 111q-77-152-231-152-68 0-108 29.5t-40 77.5q0 55 54 93.5t148 54.5q35 89 115 266-118-7-144-19-4-2-6-2-6 0-6 10 0 19 23.5 45.5t46.5 36.5q30 13 125 18 45 101 86 183t93 168 100 144 103 95.5 106 37.5q73 0 124.5-65.5t51.5-163.5q0-74-29-150t-83-129-116-53q-38 0-74.5 16t-36.5 39q0 13 19 13 49 0 97.5 58t78 142.5 29.5 161.5q-32-3-72-44.5t-83.5-115.5-83-153-85.5-181q132-5 141-24 1-2 1-5 0-18-19.5-45.5t-32.5-27.5q-4 0-8 2-24 9-120 13-58-130-115-267 188-21 318.5-103.5t130.5-175.5q0-31-14-74t-34.5-75-38.5-31q-16 0-16 33 0 101-113.5 193.5t-281.5 125.5zM69 71q0-10 8-17t21-7q22 0 42 22t27 50q-98-13-98-48z" glyph-name="sterling" horiz-adv-x="1039" unicode="&#xa3;"/><glyph d="M644 469q-25-50-52-119 169-6 169-25 0-9-11.5-35t-20.5-26q-5 0-32 3-64 8-131 8-50-158-50-296 0-26-23-26-139 0-139 89 0 104 40 232-150 0-176-14-1-1-4-1-4 0-4 6 0 13 16 39.5t29 32.5q34 14 167 14 22 59 51 117-150 0-176-14-1-1-4-1-4 0-4 6 0 13 16 39.5t29 32.5q32 14 179 14 12 20 17 30-32 161-107.5 310.5t-126.5 149.5q-18 0-18 11 0 4 5.5 9t16.5 10.5 26.5 9.5 37 6.5 45.5 2.5q80 0 138.5-93t83.5-257q106 154 211 258.5t150 104.5q34 0 74.5-56t40.5-90q0-17-13-17-7 0-19 8.5t-24 8.5q-57 0-166-118.5t-203-288.5q158-8 158-25 0-9-11.5-35t-20.5-26q-5 0-32 3-64 8-132 8z" glyph-name="yen" horiz-adv-x="1051" unicode="&#xa5;"/><glyph d="M384 827q0 82 66 182.5t164.5 170.5 182.5 70q79 0 135.5-59.5t56.5-141.5q0-57-26.5-127.5t-69.5-122-85-51.5q-30 0-87 18.5t-57 31.5q0 7 16 7 42 0 93 57t85.5 137.5 34.5 144.5q-59 0-123.5-32.5t-114.5-81.5-82.5-111-32.5-117q0-44 21.5-78t53.5-53.5 69.5-41 69.5-40.5 53.5-51 21.5-73q0-98-102-184.5t-231-104.5q33-17 52-29.5t41.5-32 33-44.5 10.5-55q0-71-57-140t-146-111-180-42q-90 0-142.5 42t-52.5 110q0 49 23.5 106t43.5 57q5 0 10-4t5-11q0-5-5-21-15-42-15-75 0-80 70-80 66 0 142.5 33.5t128.5 82.5 52 91q0 31-33 57.5t-80 49.5-94.5 49.5-80.5 69.5-33 98q0 83 66.5 183.5t161.5 168.5q-33 45-33 98zM345 352q0-27 8-51 15-5 32-5 64 0 140 33.5t128 82.5 52 91q0 17-8 31.5t-29.5 30-34.5 23-49.5 26-47.5 24.5q-81-52-136-132t-55-154z" glyph-name="section" horiz-adv-x="923" unicode="&#xa7;"/><glyph d="M380 1009q-30 0-49.5 20t-19.5 51q0 28 16 50.5t36 22.5q33 0 62-14.5t30-31.5q0-7-8-15-12-11-23-31.5t-11-31.5q0-20-33-20zM167 1205q33 0 62-14.5t30-31.5q0-7-8-15-12-11-23-31.5t-11-31.5q0-20-33-20-30 0-49.5 20t-19.5 51q0 28 16 50.5t36 22.5z" glyph-name="dieresis" horiz-adv-x="508" unicode="&#xa8;"/><glyph d="M238 255q0 127 57 251.5t149.5 217.5 216 151 248.5 58q187 0 303.5-121.5t116.5-315.5q0-173-92-330t-244-252-319-95q-191 0-313.5 121.5t-122.5 314.5zM1217 546q0 144-76 211.5t-195 67.5q-108 0-217-54t-191-138.5-133.5-194.5-51.5-216q0-136 80.5-214t210.5-78q107 0 212.5 54t184 140 127.5 198.5 49 223.5zM925 291q28 0 28-23 0-39-83.5-112.5t-130.5-73.5q-72 0-123 71t-51 155q0 76 44.5 158.5t114.5 138 137 55.5q54 0 103-32.5t49-80.5q0-17-6.5-26t-15.5-9q-12 0-12 13 0 12-11.5 19t-28.5 7q-47 0-100.5-53t-89-132-35.5-149q0-63 31-63 36 0 133 104 31 33 47 33z" glyph-name="copyright" horiz-adv-x="1491" unicode="&#xa9;"/><glyph d="M824 1021q-33-35-77.5-145t-44.5-176q0-14 15-31 11-13 11-22 0-17-19-17-62 0-113 29.5t-51 64.5q0 15 3 30-92-171-153-171-36 0-95.5 37t-59.5 62q0 103 40 206.5t99.5 168 116.5 64.5q36 0 93.5-20.5t65.5-45.5q43 66 66 66 21 0 66.5-31t45.5-52q0-6-9-17zM648 1044q-62 0-121.5-57.5t-97.5-154.5-38-201q13 5 30.5 25t41.5 60 40.5 69 46.5 86q68 126 98 173z" glyph-name="ordfeminine" horiz-adv-x="693" unicode="&#xaa;"/><glyph d="M641 830q9 13 20 13 19 0 58.5-24t39.5-41q0-20-70.5-67.5t-234.5-136.5q-84-46-126-71 35-20 88-50 57-32 89-50.5t74-45.5 62-46 20-31q0-18-39-42.5t-59-24.5q-13 0-20 13-17 28-217 143-198 114-198 133 0 21 254 164 244 138 259 164zM1011 830q7 13 19 13 20 0 59-24t39-41q0-13-26-35t-78-54-94.5-56-110.5-62q-45-24-122-68 35-20 88-50 57-32 89-50.5t74-45.5 62-46 20-31q0-18-38.5-42.5t-58.5-24.5q-14 0-21 13-16 27-217 143-198 114-198 133 0 25 253 164 240 130 261 164z" glyph-name="guillemotleft" horiz-adv-x="1223" unicode="&#xab;"/><glyph d="M1329 496q0-173-92-330t-244-252-319-95q-191 0-313.5 121.5t-122.5 314.5q0 127 57 251.5t149.5 217.5 216 151 248.5 58q187 0 303.5-121.5t116.5-315.5zM1232 519q0 139-87.5 230t-219.5 91-267.5-90.5-222.5-230.5-87-276q0-138 89.5-227.5t225.5-89.5q102 0 207 54.5t183.5 139 128.5 191.5 50 208zM708 352q-69-159-69-203 0-15-11-15-16 0-45.5 19.5t-29.5 38.5q0 36 72 203.5t92 167.5 51.5-16 31.5-29q0-8-6-8-14 0-70-123 5-1 17-1 66 0 128.5 41.5t62.5 91.5q0 38-40 64t-102 26q-83 0-152.5-44t-69.5-95q0-20 11-33.5t28-13.5q14 0 14-8 0-9-22-9-33 0-55 27.5t-22 65.5q0 78 86 146.5t194 68.5q94 0 166.5-52.5t72.5-127.5q0-70-64.5-122.5t-158.5-64.5q7-98 44.5-150t95.5-52q53 0 53 37 0 18 12 18 11 0 11-19 0-29-31.5-47t-78.5-18q-85 0-141 61t-62 171q-5 0-13 4z" glyph-name="registered" horiz-adv-x="1491" unicode="&#xae;"/><glyph d="M365 857q-71 0-116 45t-45 117q0 96 76.5 173.5t171.5 77.5q70 0 113-45t43-117q0-98-74-174.5t-169-76.5zM302 1026q0-32 19.5-51t50.5-19q53 0 96 46.5t43 102.5q0 35-18 51t-47 16q-54 0-99-46t-45-100z" glyph-name="degree" horiz-adv-x="458" unicode="&#xb0;"/><glyph d="M1055 491q-2 0-6 2.5t-6 3.5q-36 14-296 14-71-293-71-329 0-13-11-13-21 0-70.5 25.5t-49.5 45.5q0 18 63 270-102 0-209-8t-126-18q-6-3-13-3t-7 11q0 23 26 67.5t47 53.5q48 22 312 22 71 288 71 318 0 8 7 8 18 0 64.5-21.5t46.5-33.5q0-32-52-272 98 0 174.5-5.5t115.5-14 39-18.5q0-12-19.5-58.5t-29.5-46.5zM967-18q-2 0-6 2.5t-6 3.5q-35 14-365 14-111 0-247-8t-158-18q-6-4-13-4t-7 11q0 24 25.5 68t47.5 53q49 22 373 22 185 0 295-10.5t110-28.5q0-11-19.5-58t-29.5-47z" glyph-name="plusminus" horiz-adv-x="1248" unicode="&#xb1;"/><glyph d="M666 1016q0-61-44-133t-120-138q67-23 111-54t44-59q0-24-26.5-68t-41.5-43q-8 0-8 14 0 38-48 78.5t-120 65.5q-121-76-211-76-34 0-55 15.5t-21 39.5q0 45 65 81t150 36q12 0 17-1 176 169 176 280 0 39-23 61.5t-64 22.5q-61 0-115.5-45t-54.5-96q0-25 14.5-41.5t37.5-16.5q20 0 20-10 0-12-28-12-41 0-70 29.5t-29 72.5q0 67 70 119.5t165 52.5q92 0 150.5-51.5t58.5-123.5zM279 705q-52 0-84-11.5t-32-30.5q0-15 15-15 30 0 101 57z" glyph-name="twosuperior" horiz-adv-x="570" unicode="&#xb2;"/><glyph d="M523 926q65-13 101-47t36-83q0-81-91.5-138.5t-213.5-57.5q-75 0-115 24t-40 67q0 30 17 60t36 30q12 0 33-11t21-17q0-3-4-3-12 0-26-23.5t-14-40.5 17.5-27 46.5-10q69 0 125 49.5t56 114.5q0 46-30.5 72.5t-84.5 26.5q-8 0-16 8t-8 17q0 10 8 10 74 0 124 35.5t50 89.5q0 32-19 50.5t-52 18.5q-37 0-72.5-23t-53.5-59q-5-10-21-18t-28-8q-15 0-15 14 0 4 4 16 21 55 76.5 86.5t136.5 31.5q83 0 135.5-32.5t52.5-82.5q0-47-47-84.5t-125-55.5z" glyph-name="threesuperior" horiz-adv-x="616" unicode="&#xb3;"/><glyph d="M428 1238q26 0 72-41.5t46-64.5q0-19-46-71.5t-91.5-106.5-45.5-77q0-9-7-9-14 0-39 18.5t-25 39.5q0 40 30.5 102t61 116.5 30.5 76.5q0 17 14 17z" glyph-name="acute" horiz-adv-x="598" unicode="&#xb4;"/><glyph d="M199-237q0-2-5-2-12 0-22.5-13.5t-10.5-28.5q0-16 14.5-27t34.5-11q40 0 73 38.5t33 77.5q0 31-23 55t-52 24q-12 0-27-5.5t-16-5.5q-6 0-6 3 0 20 20.5 72.5t31.5 56.5h67q-7 0-22.5-35t-23.5-61q13 3 29 3 49 0 85-29t36-74q0-58-54.5-106t-125.5-48q-47 0-77 23t-30 60q0 21 10 36.5t23 15.5q10-1 24-8.5t14-10.5z" glyph-name="cedilla" horiz-adv-x="529" unicode="&#xb8;"/><glyph d="M436 1176q33 0 71-22.5t38-42.5l-120-414q65-5 65-19 0-8-14-41t-20-33q-2 0-6 2-13 6-89 6-131 0-153-11-2-1-5-1t-3 4q0 12 17 46t31 40q7 4 41 7l116 387q-32-23-56-47.5t-24-36.5q0-4-5-4-12 0-31 7.5t-19 17.5q0 21 71.5 88t94.5 67z" glyph-name="onesuperior" horiz-adv-x="420" unicode="&#xb9;"/><glyph d="M688 1034q0-20-15-26 3-18 3-38 0-77-38-166t-101.5-152-126.5-63-116.5 57.5-53.5 132.5q0 63 36.5 150.5t98.5 155.5 122 68q52 0 121.5-38t69.5-81zM625 979q0 48-23 48-18 0-18-32 0-21-9.5-33.5t-21.5-12.5q-11 0-20 12t-10 35q-47-51-81-132t-34-147q0-60 32-60 36 0 80.5 59t74.5 135.5 30 127.5z" glyph-name="ordmasculine" horiz-adv-x="588" unicode="&#xba;"/><glyph d="M569 554q-121 62-227 128t-106 93q0 16 37.5 41t57.5 25q17 0 25-13 20-30 210-138 200-113 200-135 0-13-73.5-60.5t-176.5-103.5q-97-52-174-100.5t-89-67.5q-6-8-17-8-23 0-61.5 24.5t-38.5 40.5q0 29 139.5 112.5t293.5 161.5zM601 217q-20 0-57.5 23.5t-37.5 39.5q0 29 139.5 112.5t293.5 161.5q-114 57-223.5 125t-109.5 96q0 17 37.5 42.5t57.5 25.5q16 0 24-14 17-24 212-140 199-116 199-134 0-14-77-62.5t-180-103.5q-231-124-252-159-8-13-26-13z" glyph-name="guillemotright" horiz-adv-x="1237" unicode="&#xbb;"/><glyph d="M660 316q82 0 131.5-51.5t49.5-136.5q0-131-112-220.5t-276-89.5q-152 0-253.5 77t-101.5 194q0 58 25.5 112t77 106 97 88 118.5 88q53 38 87 63.5t76 63 66 68 41 68.5 17 75q0 8 10 8 25 0 51-34.5t26-68.5q0-32-16.5-67.5t-36.5-62.5-62-66.5-67.5-61.5-78.5-65q-51-41-78.5-64t-67.5-61-60.5-65.5-36.5-62.5-16-66q0-67 60-109.5t155-42.5q113 0 188 59.5t75 149.5q0 57-30.5 92t-80.5 35q-44 0-44 21 0 11 17 19t50 8zM811 1060q37 0 62-25.5t25-63.5q0-35-20-63.5t-45-28.5q-41 0-77.5 18t-37.5 40q0 10 10 19 15 14 28.5 39t13.5 39q0 26 41 26z" glyph-name="questiondown" horiz-adv-x="1057" unicode="&#xbf;"/><glyph d="M908 23q0 116 38 283-66 32-136 56-150-177-296-282t-253-105q-77 0-126 51.5t-49 133.5q0 141 143.5 235.5t357.5 94.5q87 0 183-17 126 163 225 337.5t141 315.5q-184-15-340.5-75.5t-248.5-150.5-92-188q0-54 28-83t77-29q24 0 37-6.5t13-14.5q0-11-18-19t-52-8q-82 0-130.5 48t-48.5 130q0 133 123 260t324 206 413 79q56 0 129-51t122-113 49-96q0-13-8.5-23t-19.5-10q-35 0-95.5-91t-125.5-242-107-307q155-84 155-165 0-42-35-94t-65-52q-19 0-19 28 0 60-71 126-17-100-17-186 0-121 32.5-200t83.5-79q31 0 51 28t20 71q0 54 23 54 10 0 17-16t7-46q0-71-47-113.5t-126-42.5q-121 0-193.5 100t-72.5 268zM705 392q-97 24-189 24-153 0-259-71t-106-173q0-55 31-90.5t79-35.5q77 0 196 95t248 251zM1430 1393q0 25-83 118.5t-83 113.5q0 21 42 58.5t65 37.5q13 0 13-15 0-21 55-121.5t55-146.5q0-19-23-36t-35-17q-6 0-6 8zM881 450q36-9 95-28 50 178 127 367-101-184-222-339z" glyph-name="Agrave" horiz-adv-x="1402" unicode="&#xc0;"/><glyph d="M908 23q0 116 38 283-66 32-136 56-150-177-296-282t-253-105q-77 0-126 51.5t-49 133.5q0 141 143.5 235.5t357.5 94.5q87 0 183-17 126 163 225 337.5t141 315.5q-184-15-340.5-75.5t-248.5-150.5-92-188q0-54 28-83t77-29q24 0 37-6.5t13-14.5q0-11-18-19t-52-8q-82 0-130.5 48t-48.5 130q0 133 123 260t324 206 413 79q56 0 129-51t122-113 49-96q0-13-8.5-23t-19.5-10q-35 0-95.5-91t-125.5-242-107-307q155-84 155-165 0-42-35-94t-65-52q-19 0-19 28 0 60-71 126-17-100-17-186 0-121 32.5-200t83.5-79q31 0 51 28t20 71q0 54 23 54 10 0 17-16t7-46q0-71-47-113.5t-126-42.5q-121 0-193.5 100t-72.5 268zM705 392q-97 24-189 24-153 0-259-71t-106-173q0-55 31-90.5t79-35.5q77 0 196 95t248 251zM1388 1391q0 40 30.5 102t61 116.5 30.5 76.5q0 17 14 17 26 0 72-41.5t46-64.5q0-15-28.5-51.5t-63-73-63-74.5-28.5-56q0-9-7-9-13 0-38.5 18.5t-25.5 39.5zM881 450q36-9 95-28 50 178 127 367-101-184-222-339z" glyph-name="Aacute" horiz-adv-x="1402" unicode="&#xc1;"/><glyph d="M1174-345q-121 0-193.5 100t-72.5 268q0 116 38 283-66 32-136 56-150-177-296-282t-253-105q-77 0-126 51.5t-49 133.5q0 141 143.5 235.5t357.5 94.5q87 0 183-17 126 163 225 337.5t141 315.5q-184-15-340.5-75.5t-248.5-150.5-92-188q0-54 28-83t77-29q24 0 37-6.5t13-14.5q0-11-18-19t-52-8q-82 0-130.5 48t-48.5 130q0 133 123 260t324 206 413 79q56 0 129-51t122-113 49-96q0-13-8.5-23t-19.5-10q-35 0-95.5-91t-125.5-242-107-307q155-84 155-165 0-42-35-94t-65-52q-19 0-19 28 0 60-71 126-17-100-17-186 0-121 32.5-200.5t83.5-79.5q31 0 51 28.5t20 71.5q0 54 23 54 10 0 17-16t7-46q0-71-47-113.5t-126-42.5zM705 392q-97 24-189 24-153 0-259-71t-106-173q0-55 31-90.5t79-35.5q77 0 196 95t248 251zM1504 1724q23 0 52-113 26-95 46-109 10-7 10-22 0-26-25.5-57.5t-43.5-31.5q-38 0-73 180-92-145-131-145-30 0-35 88 0 13 19 24 36 17 94 96 64 90 87 90zM1103 789q-101-184-222-339 36-9 95-28 50 178 127 367z" glyph-name="Acircumflex" horiz-adv-x="1402" unicode="&#xc2;"/><glyph d="M1174-345q-121 0-193.5 100t-72.5 268q0 116 38 283-66 32-136 56-150-177-296-282t-253-105q-77 0-126 51.5t-49 133.5q0 141 143.5 235.5t357.5 94.5q87 0 183-17 126 163 225 337.5t141 315.5q-184-15-340.5-75.5t-248.5-150.5-92-188q0-54 28-83t77-29q24 0 37-6.5t13-14.5q0-11-18-19t-52-8q-82 0-130.5 48t-48.5 130q0 133 123 260t324 206 413 79q56 0 129-51t122-113 49-96q0-13-8.5-23t-19.5-10q-35 0-95.5-91t-125.5-242-107-307q155-84 155-165 0-42-35-94t-65-52q-19 0-19 28 0 60-71 126-17-100-17-186 0-121 32.5-200.5t83.5-79.5q31 0 51 28.5t20 71.5q0 54 23 54 10 0 17-16t7-46q0-71-47-113.5t-126-42.5zM151 172q0-55 31-90.5t79-35.5q77 0 196 95t248 251q-97 24-189 24-153 0-259-71t-106-173zM1218 1554q0 35 33.5 58t83.5 23 109-35 94-35q42 0 42 22 0 16-33.5 31t-33.5 21q0 11 24 11 31 0 58.5-27.5t27.5-59.5-32-53.5-81-21.5q-32 0-61 11t-47.5 23.5-44 23.5-49.5 11q-45 0-45-23 0-16 32-29t32-22q0-10-21-10-33 0-60.5 24.5t-27.5 56.5zM976 422q50 178 127 367-101-184-222-339 36-9 95-28z" glyph-name="Atilde" horiz-adv-x="1402" unicode="&#xc3;"/><glyph d="M1174-345q-121 0-193.5 100t-72.5 268q0 116 38 283-66 32-136 56-150-177-296-282t-253-105q-77 0-126 51.5t-49 133.5q0 141 143.5 235.5t357.5 94.5q87 0 183-17 126 163 225 337.5t141 315.5q-184-15-340.5-75.5t-248.5-150.5-92-188q0-54 28-83t77-29q24 0 37-6.5t13-14.5q0-11-18-19t-52-8q-82 0-130.5 48t-48.5 130q0 133 123 260t324 206 413 79q56 0 129-51t122-113 49-96q0-13-8.5-23t-19.5-10q-35 0-95.5-91t-125.5-242-107-307q155-84 155-165 0-42-35-94t-65-52q-19 0-19 28 0 60-71 126-17-100-17-186 0-121 32.5-200.5t83.5-79.5q31 0 51 28.5t20 71.5q0 54 23 54 10 0 17-16t7-46q0-71-47-113.5t-126-42.5zM705 392q-97 24-189 24-153 0-259-71t-106-173q0-55 31-90.5t79-35.5q77 0 196 95t248 251zM1396 1474q-30 0-49.5 20t-19.5 51q0 28 16 50.5t36 22.5q33 0 62-14.5t30-31.5q0-7-8-15-12-11-23-31.5t-11-31.5q0-20-33-20zM1575 1566q33 0 62-14.5t30-31.5q0-7-8-15-12-11-23-31.5t-11-31.5q0-20-33-20-30 0-49.5 20t-19.5 51q0 28 16 50.5t36 22.5zM1103 789q-101-184-222-339 36-9 95-28 50 178 127 367z" glyph-name="Adieresis" horiz-adv-x="1402" unicode="&#xc4;"/><glyph d="M1174-345q-121 0-193.5 100t-72.5 268q0 116 38 283-66 32-136 56-150-177-296-282t-253-105q-77 0-126 51.5t-49 133.5q0 141 143.5 235.5t357.5 94.5q87 0 183-17 126 163 225 337.5t141 315.5q-184-15-340.5-75.5t-248.5-150.5-92-188q0-54 28-83t77-29q24 0 37-6.5t13-14.5q0-11-18-19t-52-8q-82 0-130.5 48t-48.5 130q0 133 123 260t324 206 413 79q56 0 129-51t122-113 49-96q0-13-8.5-23t-19.5-10q-35 0-95.5-91t-125.5-242-107-307q155-84 155-165 0-42-35-94t-65-52q-19 0-19 28 0 60-71 126-17-100-17-186 0-121 32.5-200.5t83.5-79.5q31 0 51 28.5t20 71.5q0 54 23 54 10 0 17-16t7-46q0-71-47-113.5t-126-42.5zM705 392q-97 24-189 24-153 0-259-71t-106-173q0-55 31-90.5t79-35.5q77 0 196 95t248 251zM1511 1357q-47 0-77 30t-30 77q0 64 51 116t114 52q46 0 75-30t29-78q0-65-49.5-116t-112.5-51zM1604 1520q0 43-41 43-33 0-61.5-29.5t-28.5-62.5q0-21 12-32.5t32-11.5q33 0 60 29t27 64zM1103 789q-101-184-222-339 36-9 95-28 50 178 127 367z" glyph-name="Aring" horiz-adv-x="1402" unicode="&#xc5;"/><glyph d="M1755 587q-133 0-256-51t-200-139-77-187q0-85 57-132.5t154-47.5q169 0 356.5 134t297.5 331q19 34 31 47t24 13 19.5-8.5 7.5-21.5q0-14-7-28-131-262-349.5-420.5t-453.5-158.5q-176 0-283 103t-107 273q-73 39-159 68-150-177-296-282t-253-105q-77 0-126 51.5t-49 133.5q0 141 143.5 235.5t357.5 94.5q87 0 183-17 126 163 225 337.5t141 315.5q-184-15-340.5-75.5t-248.5-150.5-92-188q0-54 28-83t77-29q24 0 37-6.5t13-14.5q0-11-18-19t-52-8q-82 0-130.5 48t-48.5 130q0 133 123 260t324 206 413 79q70 0 160-74t127-144q64 69 149 114t161 45q86 0 149.5-53.5t63.5-126.5q0-65-48-130.5t-93-65.5q-29 0-75.5 25t-46.5 38q0 7 8 7 30 0 85.5 71.5t59.5 128.5q-63-3-132.5-43t-115.5-97.5-46-107.5q0-56 51.5-108t109.5-65q65-13 91-28 20-11 37.5-35.5t17.5-48.5q0-19-10-19-9 0-32 9-52 20-137 20zM516 416q-153 0-259-71t-106-173q0-55 31-90.5t79-35.5q77 0 196 95t248 251q-97 24-189 24zM1252 611q114 70 260 90-98 77-98 167 0 35 17 75-42-46-90.5-134.5t-88.5-197.5zM1092 769q-96-171-211-319 60-15 104-31 30 156 107 350z" glyph-name="AE" horiz-adv-x="2373" unicode="&#xc6;"/><glyph d="M384-307q0-17 14-28t35-11q40 0 73 39t33 78q0 31-23 54.5t-52 23.5q-12 0-27-5.5t-16-5.5q-6 0-6 7 0 19 23 76-147 20-249.5 150.5t-102.5 301.5q0 134 68.5 283.5t173 268 237 196.5 252.5 78q123 0 202.5-76.5t79.5-196.5q0-124-80-225t-172-101q-46 0-106 24t-60 41q0 10 24 10 59 0 126.5 61t114 156.5 46.5 185.5q-103 0-236-86.5t-243.5-211.5-187-273.5-76.5-262.5q0-101 58.5-157.5t162.5-56.5q155 0 316 124.5t277 331.5q23 41 35.5 55t24.5 14 19.5-8.5 7.5-21.5q0-14-7-28-127-254-300-411.5t-339-166.5q-11-27-16-45 14 3 29 3 49 0 85-28.5t36-74.5q0-58-54.5-106t-125.5-48q-47 0-77 23t-30 60q0 22 9.5 37t23.5 15q10 0 24-8t14-11q0-2-5-2-12 0-22.5-13.5t-10.5-27.5z" glyph-name="Ccedilla" horiz-adv-x="994" unicode="&#xc7;"/><glyph d="M372 871q0 70 62 151t157.5 137 182.5 56 151-53 64-126q0-65-48.5-130.5t-93.5-65.5q-29 0-75.5 25t-46.5 38q0 6 9 6 29 0 84.5 72t59.5 129q-63-3-132.5-43t-115.5-97.5-46-107.5q0-54 50-101t111-72q58-23 91-28 19-3 37-30.5t18-53.5q0-19-10-19-9 0-32 9-52 20-137 20-133 0-256-51t-200-139-77-187q0-86 59-133t167-47q177 0 347.5 124t287.5 334q22 39 34.5 53t24.5 14 19.5-8.5 7.5-21.5q0-14-7-28-131-263-314.5-421t-366.5-158q-108 0-205.5 53.5t-157 144-59.5 190.5q0 154 137.5 265t337.5 133q-119 74-119 167zM967 1309q0 25-83.5 118t-83.5 113q0 22 42.5 59.5t65.5 36.5q13 0 13-15 0-21 55-121t55-147q0-19-23-36t-35-17q-6 0-6 9z" glyph-name="Egrave" horiz-adv-x="970" unicode="&#xc8;"/><glyph d="M491 704q-119 74-119 167 0 70 62 151t157.5 137 182.5 56 151-53 64-126q0-65-48.5-130.5t-93.5-65.5q-29 0-75.5 25t-46.5 38q0 6 9 6 29 0 84.5 72t59.5 129q-63-3-132.5-43t-115.5-97.5-46-107.5q0-54 50-101t111-72q58-23 91-28 19-3 37-30.5t18-53.5q0-19-10-19-9 0-32 9-52 20-137 20-133 0-256-51t-200-139-77-187q0-86 59-133t167-47q177 0 347.5 124t287.5 334q22 39 34.5 53t24.5 14 19.5-8.5 7.5-21.5q0-14-7-28-131-263-314.5-421t-366.5-158q-108 0-205.5 53.5t-157 144-59.5 190.5q0 154 137.5 265t337.5 133zM989 1248q-13 0-38.5 19t-25.5 40q0 39 30.5 101t61 117 30.5 77q0 16 14 16 26 0 72-41t46-65q0-19-46-71.5t-92-106.5-46-76q0-10-6-10z" glyph-name="Eacute" horiz-adv-x="970" unicode="&#xc9;"/><glyph d="M1119 497q-131-263-314.5-421t-366.5-158q-108 0-205.5 53.5t-157 144-59.5 190.5q0 154 137.5 265t337.5 133q-119 74-119 167 0 70 62 151t157.5 137 182.5 56 151-53 64-126q0-65-48.5-130.5t-93.5-65.5q-29 0-75.5 25t-46.5 38q0 6 9 6 29 0 84.5 72t59.5 129q-63-3-132.5-43t-115.5-97.5-46-107.5q0-54 50-101t111-72q58-23 91-28 19-3 37-30.5t18-53.5q0-19-10-19-9 0-32 9-52 20-137 20-133 0-256-51t-200-139-77-187q0-86 59-133t167-47q177 0 347.5 124t287.5 334q22 39 34.5 53t24.5 14 19.5-8.5 7.5-21.5q0-14-7-28zM1139 1417q10-7 10-22 0-26-26-57t-43-31q-38 0-73 179-94-145-131-145-17 0-26 27.5t-9 60.5q0 15 19 24 39 22 94 97 67 90 86 90 26 0 53-112 23-95 46-111z" glyph-name="Ecircumflex" horiz-adv-x="970" unicode="&#xca;"/><glyph d="M878 1110q-63-3-132.5-43t-115.5-97.5-46-107.5q0-54 50-101t111-72q58-23 91-28 19-3 37-30.5t18-53.5q0-19-10-19-9 0-32 9-52 20-137 20-133 0-256-51t-200-139-77-187q0-86 59-133t167-47q177 0 347.5 124t287.5 334q22 39 34.5 53t24.5 14 19.5-8.5 7.5-21.5q0-14-7-28-131-263-314.5-421t-366.5-158q-108 0-205.5 53.5t-157 144-59.5 190.5q0 154 137.5 265t337.5 133q-119 74-119 167 0 70 62 151t157.5 137.5 182.5 56.5q86 0 150.5-53.5t64.5-126.5q0-65-48.5-130.5t-93.5-65.5q-29 0-75.5 25t-46.5 38q0 7 9 7 29 0 84.5 72t59.5 128zM1195 1420q-12-10-22.5-30.5t-10.5-31.5q0-21-33-21-30 0-50 20t-20 51q0 28 16.5 51t35.5 23q33 0 62.5-14.5t29.5-32.5q0-7-8-15zM966 1410q0-21-33-21-30 0-50 20t-20 51q0 28 16.5 51t35.5 23q33 0 62.5-14.5t29.5-31.5q0-8-8-16-12-10-22.5-30.5t-10.5-31.5z" glyph-name="Edieresis" horiz-adv-x="970" unicode="&#xcb;"/><glyph d="M171 9q12 0 20.5-9.5t8.5-24.5q0-18 11.5-29t25.5-11q41 0 101.5 96t120.5 239.5 120 313 103.5 312.5 68.5 241q-124-40-258-150t-224-245.5-90-240.5q0-62 31-98t82-36q43 0 43-21 0-11-17-18.5t-47-7.5q-82 0-133.5 62t-51.5 160q0 89 44 193t118.5 197.5 164 171.5 188.5 124.5 183 46.5q68 0 129-46t61-90q0-79-184.5-565.5t-258.5-605.5q-39-62-103.5-96t-134.5-34q-71 0-114.5 32.5t-43.5 85.5q0 25 11 39t25 14zM947 1393q0 25-83.5 118.5t-83.5 113.5q0 21 42.5 58.5t65.5 37.5q13 0 13-15 0-21 55-121.5t55-146.5q0-19-23-36t-35-17q-6 0-6 8z" glyph-name="Igrave" horiz-adv-x="817" unicode="&#xcc;"/><glyph d="M171 9q12 0 20.5-9.5t8.5-24.5q0-18 11.5-29t25.5-11q41 0 101.5 96t120.5 239.5 120 313 103.5 312.5 68.5 241q-124-40-258-150t-224-245.5-90-240.5q0-62 31-98t82-36q43 0 43-21 0-11-17-18.5t-47-7.5q-82 0-133.5 62t-51.5 160q0 89 44 193t118.5 197.5 164 171.5 188.5 124.5 183 46.5q68 0 129-46t61-90q0-79-184.5-565.5t-258.5-605.5q-39-62-103.5-96t-134.5-34q-71 0-114.5 32.5t-43.5 85.5q0 25 11 39t25 14zM905 1391q0 40 30.5 102t61 116.5 30.5 76.5q0 17 14 17 26 0 72-41.5t46-64.5q0-19-46-71.5t-92-107-46-76.5q0-9-6-9-14 0-39 18.5t-25 39.5z" glyph-name="Iacute" horiz-adv-x="817" unicode="&#xcd;"/><glyph d="M171 9q12 0 20.5-9.5t8.5-24.5q0-18 11.5-29t25.5-11q41 0 101.5 96t120.5 239.5 120 313 103.5 312.5 68.5 241q-124-40-258-150t-224-245.5-90-240.5q0-62 31-98t82-36q43 0 43-21 0-11-17-18.5t-47-7.5q-82 0-133.5 62t-51.5 160q0 89 44 193t118.5 197.5 164 171.5 188.5 124.5 183 46.5q68 0 129-46t61-90q0-79-184.5-565.5t-258.5-605.5q-39-62-103.5-96t-134.5-34q-71 0-114.5 32.5t-43.5 85.5q0 25 11 39t25 14zM821 1514q0 13 19 24 37 19 94 96 64 90 86 90 13 0 29-33.5t24-76.5q7-38 20.5-71t25.5-41q10-7 10-22 0-26-25.5-57.5t-43.5-31.5q-38 0-73 180-94-145-131-145-17 0-26 27.5t-9 60.5z" glyph-name="Icircumflex" horiz-adv-x="817" unicode="&#xce;"/><glyph d="M171 9q12 0 20.5-9.5t8.5-24.5q0-18 11.5-29t25.5-11q41 0 101.5 96t120.5 239.5 120 313 103.5 312.5 68.5 241q-124-40-258-150t-224-245.5-90-240.5q0-62 31-98t82-36q43 0 43-21 0-11-17-18.5t-47-7.5q-82 0-133.5 62t-51.5 160q0 89 44 193t118.5 197.5 164 171.5 188.5 124.5 183 46.5q68 0 129-46t61-90q0-79-184.5-565.5t-258.5-605.5q-39-62-103.5-96t-134.5-34q-71 0-114.5 32.5t-43.5 85.5q0 25 11 39t25 14zM1039 1493q0 28 16 50.5t36 22.5q33 0 62.5-14.5t29.5-31.5q0-8-8-15-12-11-22.5-31.5t-10.5-31.5q0-20-33-20-30 0-50 20t-20 51zM843 1545q0 28 16 50.5t36 22.5q33 0 62.5-14.5t29.5-31.5q0-8-8-15-12-11-22.5-31.5t-10.5-31.5q0-20-33-20-30 0-50 20t-20 51z" glyph-name="Idieresis" horiz-adv-x="817" unicode="&#xcf;"/><glyph d="M533-21q0-35-32-35-49 0-114 61.5t-65 122.5q0 85 115 403t207 484q-84-32-167-87.5t-149.5-123-107.5-147-41-151.5q0-65 31-102t82-37q43 0 43-21 0-11-17-18.5t-47-7.5q-83 0-134 63t-51 165q0 109 62.5 224t157.5 201 213 141.5 223 55.5q56 0 119-45t63-82q0-11-5.5-19.5t-11.5-8.5q-31 0-155-277.5t-193-501.5q91 177 260 411t331.5 405.5 225.5 171.5q40 0 88.5-57.5t48.5-99.5q0-17-8.5-28.5t-20.5-11.5q-40 0-112.5-134.5t-141.5-315.5-120-379.5-51-314.5q0-78 23.5-120.5t65.5-42.5q40 0 69 33.5t29 78.5q0 20 6.5 31.5t14.5 11.5q11 0 19-17t8-47q0-69-46-112.5t-131-43.5q-125 0-195 97t-70 272q0 205 90.5 469.5t216.5 456.5q-125-137-272-340.5t-250.5-385-103.5-245.5zM1024 1440q0-10-21-10-33 0-60.5 24.5t-27.5 56.5q0 35 33.5 58t83.5 23 109-35 94-35q42 0 42 22 0 16-33.5 31t-33.5 21q0 11 24 11 31 0 58.5-27.5t27.5-59.5-32-53.5-81-21.5-108 34.5-94 34.5q-45 0-45-23 0-16 32-29t32-22z" glyph-name="Ntilde" horiz-adv-x="1285" unicode="&#xd1;"/><glyph d="M320 268q-16-8-46-8-83 0-135.5 68t-52.5 177q0 103 48.5 212t133.5 202.5 191.5 168.5 232 118.5 244.5 43.5q226 0 367-146t141-371q0-152-69.5-303.5t-176-262.5-239.5-180-256-69q-152 0-257 99t-126 251zM902 951q-15-13-62.5-63t-117-135-132-176-107.5-193-45-178q0-85 37.5-130t107.5-45q93 0 220.5 78t238 192 188 255 77.5 256q0 121-85 197.5t-238 76.5q-68 0-137-15 29-22 48-47.5t19-45.5q0-16-12-27zM295 308q13 0 21-3 0 141 79.5 332.5t199.5 337.5q-177-96-296-238.5t-119-272.5q0-69 32.5-112.5t82.5-43.5zM1006 1600q0 21 42 58.5t65 37.5q13 0 13-15 0-21 55-121.5t55-146.5q0-19-23-36t-35-17q-6 0-6 8 0 25-83 118.5t-83 113.5z" glyph-name="Ograve" horiz-adv-x="1417" unicode="&#xd2;"/><glyph d="M320 268q-16-8-46-8-83 0-135.5 68t-52.5 177q0 103 48.5 212t133.5 202.5 191.5 168.5 232 118.5 244.5 43.5q226 0 367-146t141-371q0-152-69.5-303.5t-176-262.5-239.5-180-256-69q-152 0-257 99t-126 251zM902 951q-15-13-62.5-63t-117-135-132-176-107.5-193-45-178q0-85 37.5-130t107.5-45q93 0 220.5 78t238 192 188 255 77.5 256q0 121-85 197.5t-238 76.5q-68 0-137-15 29-22 48-47.5t19-45.5q0-16-12-27zM295 308q13 0 21-3 0 141 79.5 332.5t199.5 337.5q-177-96-296-238.5t-119-272.5q0-69 32.5-112.5t82.5-43.5zM1194 1308q-13 0-38.5 18.5t-25.5 39.5q0 40 30.5 102t61 116.5 30.5 76.5q0 17 14 17 26 0 72-41.5t46-64.5q0-15-28.5-51.5t-63-73-63-74.5-28.5-56q0-9-7-9z" glyph-name="Oacute" horiz-adv-x="1417" unicode="&#xd3;"/><glyph d="M320 268q-16-8-46-8-83 0-135.5 68t-52.5 177q0 103 48.5 212t133.5 202.5 191.5 168.5 232 118.5 244.5 43.5q226 0 367-146t141-371q0-152-69.5-303.5t-176-262.5-239.5-180-256-69q-152 0-257 99t-126 251zM438 206q0-85 37.5-130t107.5-45q93 0 220.5 78t238 192 188 255 77.5 256q0 121-85 197.5t-238 76.5q-68 0-137-15 29-22 48-47.5t19-45.5q0-16-12-27-15-13-62.5-63t-117-135-132-176-107.5-193-45-178zM295 308q13 0 21-3 0 141 79.5 332.5t199.5 337.5q-177-96-296-238.5t-119-272.5q0-69 32.5-112.5t82.5-43.5zM1046 1489q0 13 19 24 36 17 94 96 64 90 87 90 19 0 53-116 30-95 45-106 10-7 10-22 0-26-25.5-57.5t-43.5-31.5q-38 0-73 180-92-145-131-145-30 0-35 88z" glyph-name="Ocircumflex" horiz-adv-x="1417" unicode="&#xd4;"/><glyph d="M320 268q-16-8-46-8-83 0-135.5 68t-52.5 177q0 103 48.5 212t133.5 202.5 191.5 168.5 232 118.5 244.5 43.5q226 0 367-146t141-371q0-152-69.5-303.5t-176-262.5-239.5-180-256-69q-152 0-257 99t-126 251zM438 206q0-85 37.5-130t107.5-45q93 0 220.5 78t238 192 188 255 77.5 256q0 121-85 197.5t-238 76.5q-68 0-137-15 29-22 48-47.5t19-45.5q0-16-12-27-15-13-62.5-63t-117-135-132-176-107.5-193-45-178zM295 308q13 0 21-3 0 141 79.5 332.5t199.5 337.5q-177-96-296-238.5t-119-272.5q0-69 32.5-112.5t82.5-43.5zM1048 1448q-33 0-60.5 24.5t-27.5 56.5q0 35 33.5 58t83.5 23 109-35 94-35q42 0 42 22 0 16-33.5 31t-33.5 21q0 11 24 11 31 0 58.5-27.5t27.5-59.5-32-53.5-81-21.5q-40 0-75 17.5t-66 34.5-61 17q-45 0-45-23 0-16 32-29t32-22q0-10-21-10z" glyph-name="Otilde" horiz-adv-x="1417" unicode="&#xd5;"/><glyph d="M320 268q-16-8-46-8-83 0-135.5 68t-52.5 177q0 103 48.5 212t133.5 202.5 191.5 168.5 232 118.5 244.5 43.5q226 0 367-146t141-371q0-152-69.5-303.5t-176-262.5-239.5-180-256-69q-152 0-257 99t-126 251zM438 206q0-85 37.5-130t107.5-45q93 0 220.5 78t238 192 188 255 77.5 256q0 121-85 197.5t-238 76.5q-68 0-137-15 29-22 48-47.5t19-45.5q0-16-12-27-15-13-62.5-63t-117-135-132-176-107.5-193-45-178zM295 308q13 0 21-3 0 141 79.5 332.5t199.5 337.5q-177-96-296-238.5t-119-272.5q0-69 32.5-112.5t82.5-43.5zM1265 1468q0 28 16 50.5t36 22.5q33 0 62-14.5t30-31.5q0-7-8-15-12-11-23-31.5t-11-31.5q0-20-33-20-30 0-49.5 20t-19.5 51zM1069 1520q0 28 16 50.5t36 22.5q33 0 62-14.5t30-31.5q0-7-8-15-12-11-23-31.5t-11-31.5q0-20-33-20-30 0-49.5 20t-19.5 51z" glyph-name="Odieresis" horiz-adv-x="1417" unicode="&#xd6;"/><glyph d="M238 851q3 0 7-5 12-19 83-89t154-139q99 86 176 144t100 66q8 2 15 2 28 0 62.5-14t44.5-30q4-5 4-10 0-4-5-7.5t-10-3.5q-21 0-109.5-69t-187.5-155q192-160 212-188 6-8 6-20 0-26-24.5-74t-38.5-48q-7 0-11 6-7 11-84 81.5t-168 149.5q-125-109-181.5-161.5t-59.5-68.5q-1-4-6-9t-10-5q-12 0-46 19.5t-39 27.5q-1 1-1 5 2 22 71 95t186 175q-180 162-201 192-4 5-4 14 3 22 27.5 71t37.5 48z" glyph-name="multiply" horiz-adv-x="1017" unicode="&#xd7;"/><glyph d="M320 268q-16-8-46-8-83 0-135.5 68t-52.5 177q0 103 48.5 212t133.5 202.5 191.5 168.5 232 118.5 244.5 43.5q133 0 243-55 113 154 169 154 23 0 36-22.5t13-54.5q0-38-16-69t-39-31q-24 0-66-42 80-70 124-172.5t44-224.5q0-152-69.5-303.5t-176-262.5-239.5-180-256-69q-33 0-75 7-59-151-59-196 0-33-26-33-41 0-41 136 0 41 27 127-85 43-140 124.5t-69 184.5zM1196 1029q-113-160-261-444.5t-256-535.5q97 32 208.5 117t204 191 154 229.5 61.5 225.5q0 142-111 217zM902 951q-15-13-62.5-63t-117-135-132-176-107.5-193-45-178 30-120 87-53q78 209 236 513t304 527q-48 13-111 13-68 0-137-15 29-22 48-47.5t19-45.5q0-16-12-27zM295 308q13 0 21-3 0 141 79.5 332.5t199.5 337.5q-177-96-296-238.5t-119-272.5q0-69 32.5-112.5t82.5-43.5z" glyph-name="Oslash" horiz-adv-x="1417" unicode="&#xd8;"/><glyph d="M335 346q0-11-17-18.5t-47-7.5q-83 0-134 62.5t-51 162.5q0 106 60.5 219.5t153.5 202 212 146 230 57.5q56 0 119-44.5t63-81.5q0-11-5.5-19t-12.5-8q-34 0-129-191t-178-429-83-348q0-39 11-60t29-21q59 0 204 259 54 96 174 328 42 81 64.5 124t61.5 117 63.5 115.5 58.5 99 57.5 89.5 50 64 48 46 39.5 14q39 0 89-57.5t50-98.5q0-16-9.5-28.5t-22.5-12.5q-39 0-111.5-134.5t-141.5-315.5-120.5-380-51.5-315q0-77 23.5-119.5t65.5-42.5q40 0 69 33.5t29 78.5q0 20 6.5 31.5t14.5 11.5q11 0 19-17t8-47q0-69-46-112.5t-131-43.5q-123 0-185 93.5t-62 261.5q0 181 67 406-45-93-81.5-163.5t-81.5-144-84-120.5-82.5-77-83.5-30q-85 0-133 60.5t-48 162.5q0 160 106 455.5t207 461.5q-117-42-227-127.5t-179.5-192-69.5-199.5q0-62 30.5-98.5t81.5-36.5q43 0 43-21zM1095 1317q0 25-83 118.5t-83 113.5q0 21 42 58.5t65 37.5q13 0 13-15 0-21 55-121.5t55-146.5q0-19-23-36t-35-17q-6 0-6 8z" glyph-name="Ugrave" horiz-adv-x="1302" unicode="&#xd9;"/><glyph d="M335 346q0-11-17-18.5t-47-7.5q-83 0-134 62.5t-51 162.5q0 106 60.5 219.5t153.5 202 212 146 230 57.5q56 0 119-44.5t63-81.5q0-11-5.5-19t-12.5-8q-34 0-129-191t-178-429-83-348q0-39 11-60t29-21q59 0 204 259 54 96 174 328 42 81 64.5 124t61.5 117 63.5 115.5 58.5 99 57.5 89.5 50 64 48 46 39.5 14q39 0 89-57.5t50-98.5q0-16-9.5-28.5t-22.5-12.5q-39 0-111.5-134.5t-141.5-315.5-120.5-380-51.5-315q0-77 23.5-119.5t65.5-42.5q40 0 69 33.5t29 78.5q0 20 6.5 31.5t14.5 11.5q11 0 19-17t8-47q0-69-46-112.5t-131-43.5q-123 0-185 93.5t-62 261.5q0 181 67 406-45-93-81.5-163.5t-81.5-144-84-120.5-82.5-77-83.5-30q-85 0-133 60.5t-48 162.5q0 160 106 455.5t207 461.5q-117-42-227-127.5t-179.5-192-69.5-199.5q0-62 30.5-98.5t81.5-36.5q43 0 43-21zM1117 1257q-13 0-38.5 18.5t-25.5 39.5q0 40 30.5 102t61 116.5 30.5 76.5q0 17 14 17 26 0 72-41.5t46-64.5q0-19-45.5-71.5t-91.5-107-46-76.5q0-9-7-9z" glyph-name="Uacute" horiz-adv-x="1302" unicode="&#xda;"/><glyph d="M906 1017q-34 0-129-191t-178-429-83-348q0-39 11-60t29-21q59 0 204 259 54 96 174 328 42 81 64.5 124t61.5 117 63.5 115.5 58.5 99 57.5 89.5 50 64 48 46 39.5 14q39 0 89-57.5t50-98.5q0-16-9.5-28.5t-22.5-12.5q-39 0-111.5-134.5t-141.5-315.5-120.5-380-51.5-315q0-77 23.5-119.5t65.5-42.5q40 0 69 33.5t29 78.5q0 20 6.5 31.5t14.5 11.5q11 0 19-17t8-47q0-69-46-112.5t-131-43.5q-123 0-185 93.5t-62 261.5q0 181 67 406-45-93-81.5-163.5t-81.5-144-84-120.5-82.5-77-83.5-30q-85 0-133 60.5t-48 162.5q0 160 106 455.5t207 461.5q-117-42-227-127.5t-180-192-70-199.5q0-62 31-98.5t82-36.5q43 0 43-21 0-11-17-18.5t-47-7.5q-83 0-134 62.5t-51 162.5q0 106 60.5 219.5t153.5 202 212 146 230 57.5q56 0 119-44.5t63-81.5q0-11-5.5-19t-12.5-8zM1004 1350q-30 0-35 88 0 13 19 24 36 17 94 96 64 90 87 90 19 0 51-108 31-102 48-115 9-6 9-21 0-26-25.5-57.5t-43.5-31.5q-38 0-73 180-92-145-131-145z" glyph-name="Ucircumflex" horiz-adv-x="1302" unicode="&#xdb;"/><glyph d="M556-32q59 0 204 259 54 96 174 328 42 81 64.5 124t61.5 117 63.5 115.5 58.5 99 57.5 89.5 50 64 48 46 39.5 14q39 0 89-57.5t50-98.5q0-16-9.5-28.5t-22.5-12.5q-39 0-111.5-134.5t-141.5-315.5-120.5-380-51.5-315q0-77 23.5-119.5t65.5-42.5q40 0 69 33.5t29 78.5q0 20 6.5 31.5t14.5 11.5q11 0 19-17t8-47q0-69-46-112.5t-131-43.5q-123 0-185 93.5t-62 261.5q0 181 67 406-45-93-81.5-163.5t-81.5-144-84-120.5-82.5-77-83.5-30q-85 0-133 60.5t-48 162.5q0 160 106 455.5t207 461.5q-117-42-227-127.5t-180-192-70-199.5q0-62 31-98.5t82-36.5q43 0 43-21 0-11-17-18.5t-47-7.5q-83 0-134 62.5t-51 162.5q0 106 60.5 219.5t153.5 202 212 146 230 57.5q56 0 119-44.5t63-81.5q0-11-5.5-19t-12.5-8q-34 0-129-191t-178-429-83-348q0-39 11-60t29-21zM1324 1429q-12-11-23-31.5t-11-31.5q0-20-33-20-30 0-49.5 20t-19.5 51q0 28 16 50.5t36 22.5q33 0 62-14.5t30-31.5q0-7-8-15zM1061 1398q-30 0-49.5 20t-19.5 51q0 28 16 50.5t36 22.5q33 0 62-14.5t30-31.5q0-7-8-15-12-11-23-31.5t-11-31.5q0-20-33-20z" glyph-name="Udieresis" horiz-adv-x="1302" unicode="&#xdc;"/><glyph d="M603-425q-93 0-152 67t-59 175q0 167 139 300t360 185q79 184 146 368-96-178-206-288t-219-110q-82 0-133 61.5t-51 161.5q0 115 37 262t87 247q-151-71-262-213.5t-111-278.5q0-69 31-107t82-38q43 0 43-21 0-11-17-18.5t-47-7.5q-83 0-134 64.5t-51 175.5q0 108 51.5 219.5t132.5 197 187 139.5 209 54q56 0 117.5-44t61.5-84q0-13-7.5-24t-15.5-11q-23 0-73-108t-91.5-245.5-41.5-209.5q0-85 55-85 53 0 136 95t158 227.5 129.5 285.5 54.5 257q0 32 27 32 44 0 123-67t79-101q0-75-70.5-290t-173.5-468q34 0 53-8.5t19-19.5-19.5-19.5-56.5-8.5q-12 0-19-1-164-394-275-569-37-58-101-93.5t-132-35.5zM862 235q-180-54-292.5-165t-112.5-243q0-64 24.5-106t49.5-42q43 0 133.5 156t197.5 400zM937 1426q0 40 30.5 102t61 116.5 30.5 76.5q0 17 14 17 26 0 72-41.5t46-64.5q0-19-45.5-71.5t-91.5-106.5-46-77q0-9-7-9-14 0-39 18.5t-25 39.5z" glyph-name="Yacute" horiz-adv-x="1273" unicode="&#xdd;"/><glyph d="M268-31q-62 0-110 15-27-113-27-183 0-68 23.5-108.5t64.5-40.5q40 0 69.5 34t29.5 79q0 43 21 43 11 0 19-17t8-47q0-69-46.5-112.5t-131.5-43.5q-120 0-181.5 86.5t-61.5 226.5q0 100 31.5 237t84 281 127.5 286.5 156 253.5 174.5 180 179.5 69q80 0 129.5-56t49.5-152q0-121-70.5-264t-164.5-195q90-62 90-182 0-103-66-194t-173-143.5-225-52.5zM369 557q-125-271-191-499 18-2 28-2 82 0 164.5 48t136.5 125.5 54 156.5q0 76-51 122t-141 49zM711 1100q-40 0-129-139.5t-187-347.5q4 1 14 1 60 0 139 87.5t132.5 194 53.5 165.5q0 39-23 39z" glyph-name="germandbls" horiz-adv-x="789" unicode="&#xdf;"/><glyph d="M357 224q-56-106-104.5-165t-92.5-59-119 46.5-75 77.5q0 128 50 257.5t125 210 145 80.5q46 0 118-25.5t81-56.5q54 82 83 82 27 0 96.5-39t69.5-65q0-8-6.5-15t-15.5-7q-29 0-71.5-85.5t-72.5-190-30-160.5q0-18 3-18 9 0 145.5 193.5t161.5 234.5q22 35 48 35 10 0 17.5-6t6.5-13q-1-21-86.5-154t-177.5-257.5-109-124.5q-77 0-140.5 35t-63.5 74q0 48 14 115zM355 363q65 126 121 213-77 0-151.5-72t-122-192.5-47.5-250.5q53 20 200 302zM324 1005q0 21 42 58.5t65 37.5q13 0 13-15 0-21 55-121.5t55-146.5q0-19-23-36t-35-17q-6 0-6 8 0 25-83 118.5t-83 113.5z" glyph-name="agrave" horiz-adv-x="744" unicode="&#xe0;"/><glyph d="M357 224q-56-106-104.5-165t-92.5-59-119 46.5-75 77.5q0 128 50 257.5t125 210 145 80.5q46 0 118-25.5t81-56.5q54 82 83 82 27 0 96.5-39t69.5-65q0-8-6.5-15t-15.5-7q-29 0-71.5-85.5t-72.5-190-30-160.5q0-18 3-18 9 0 145.5 193.5t161.5 234.5q22 35 48 35 10 0 17.5-6t6.5-13q-1-21-86.5-154t-177.5-257.5-109-124.5q-77 0-140.5 35t-63.5 74q0 48 14 115zM355 363q65 126 121 213-77 0-151.5-72t-122-192.5-47.5-250.5q53 20 200 302zM512 713q-13 0-38.5 18.5t-25.5 39.5q0 40 30.5 102t61 116.5 30.5 76.5q0 17 14 17 26 0 72-41.5t46-64.5q0-15-28.5-51.5t-63-73-63-74.5-28.5-56q0-9-7-9z" glyph-name="aacute" horiz-adv-x="744" unicode="&#xe1;"/><glyph d="M357 224q-56-106-104.5-165t-92.5-59-119 46.5-75 77.5q0 128 50 257.5t125 210 145 80.5q46 0 118-25.5t81-56.5q54 82 83 82 27 0 96.5-39t69.5-65q0-8-6.5-15t-15.5-7q-29 0-71.5-85.5t-72.5-190-30-160.5q0-18 3-18 9 0 145.5 193.5t161.5 234.5q22 35 48 35 10 0 17.5-6t6.5-13q-1-21-86.5-154t-177.5-257.5-109-124.5q-77 0-140.5 35t-63.5 74q0 48 14 115zM355 363q65 126 121 213-77 0-151.5-72t-122-192.5-47.5-250.5q53 20 200 302zM364 894q0 13 19 24 36 17 94 96 64 90 87 90 21 0 53-116 26-93 45-106 10-7 10-22 0-26-25.5-57.5t-43.5-31.5q-38 0-73 180-92-145-131-145-30 0-35 88z" glyph-name="acircumflex" horiz-adv-x="744" unicode="&#xe2;"/><glyph d="M357 224q-56-106-104.5-165t-92.5-59-119 46.5-75 77.5q0 128 50 257.5t125 210 145 80.5q46 0 118-25.5t81-56.5q54 82 83 82 27 0 96.5-39t69.5-65q0-8-6.5-15t-15.5-7q-29 0-71.5-85.5t-72.5-190-30-160.5q0-18 3-18 9 0 145.5 193.5t161.5 234.5q22 35 48 35 10 0 17.5-6t6.5-13q-1-21-86.5-154t-177.5-257.5-109-124.5q-77 0-140.5 35t-63.5 74q0 48 14 115zM355 363q65 126 121 213-77 0-151.5-72t-122-192.5-47.5-250.5q53 20 200 302zM278 934q0 35 33.5 58t83.5 23 109-35 94-35q42 0 42 22 0 16-33.5 31t-33.5 21q0 11 24 11 31 0 58.5-27.5t27.5-59.5-32-53.5-81-21.5q-32 0-61 11t-47.5 23.5-44 23.5-49.5 11q-45 0-45-23 0-16 32-29t32-22q0-10-21-10-33 0-60.5 24.5t-27.5 56.5z" glyph-name="atilde" horiz-adv-x="744" unicode="&#xe3;"/><glyph d="M357 224q-56-106-104.5-165t-92.5-59-119 46.5-75 77.5q0 128 50 257.5t125 210 145 80.5q46 0 118-25.5t81-56.5q54 82 83 82 27 0 96.5-39t69.5-65q0-8-6.5-15t-15.5-7q-29 0-71.5-85.5t-72.5-190-30-160.5q0-18 3-18 9 0 145.5 193.5t161.5 234.5q22 35 48 35 10 0 17.5-6t6.5-13q-1-21-86.5-154t-177.5-257.5-109-124.5q-77 0-140.5 35t-63.5 74q0 48 14 115zM355 363q65 126 121 213-77 0-151.5-72t-122-192.5-47.5-250.5q53 20 200 302zM652 802q-30 0-49.5 20t-19.5 51q0 28 16 50.5t36 22.5q33 0 62-14.5t30-31.5q0-7-8-15-12-11-23-31.5t-11-31.5q0-20-33-20zM456 854q-30 0-49.5 20t-19.5 51q0 28 16 50.5t36 22.5q33 0 62-14.5t30-31.5q0-7-8-15-12-11-23-31.5t-11-31.5q0-20-33-20z" glyph-name="adieresis" horiz-adv-x="744" unicode="&#xe4;"/><glyph d="M357 224q-56-106-104.5-165t-92.5-59-119 46.5-75 77.5q0 128 50 257.5t125 210 145 80.5q46 0 118-25.5t81-56.5q54 82 83 82 27 0 96.5-39t69.5-65q0-8-6.5-15t-15.5-7q-29 0-71.5-85.5t-72.5-190-30-160.5q0-18 3-18 9 0 145.5 193.5t161.5 234.5q22 35 48 35 10 0 17.5-6t6.5-13q-1-21-86.5-154t-177.5-257.5-109-124.5q-77 0-140.5 35t-63.5 74q0 48 14 115zM355 363q65 126 121 213-77 0-151.5-72t-122-192.5-47.5-250.5q53 20 200 302zM571 737q-47 0-77 30t-30 77q0 64 51 116t114 52q46 0 75-30t29-78q0-65-49.5-116t-112.5-51zM623 943q-33 0-61.5-29.5t-28.5-62.5q0-21 12-32.5t32-11.5q33 0 60 29t27 64q0 43-41 43z" glyph-name="aring" horiz-adv-x="744" unicode="&#xe5;"/><glyph d="M350 188q-116-188-190-188-44 0-119 46.5t-75 77.5q0 128 50 257.5t125 210 145 80.5q50 0 125-28t75-61q0-7-18-7-77 0-149.5-72.5t-118-192.5-45.5-250q16 5 35.5 25.5t45.5 62.5 42.5 71.5 49.5 89.5q51 94 103.5 170.5t86.5 104.5q105 87 184 87 68 0 129-49.5t61-108.5q0-65-42-125.5t-95-94-94-33.5q-29 0-64 16t-35 26q0 7 20 7 34 0 79 25.5t84.5 75 47.5 107.5q-53-6-115.5-61t-106-134-43.5-145q0-43 19.5-68t53.5-25q52 0 124.5 59.5t136 141 108 146 59.5 93.5q17 30 33 30 12 0 20.5-11t8.5-26q0-13-6-25-8-16-35.5-60.5t-83.5-122-116.5-144-137-116.5-141.5-50q-72 0-136.5 53.5t-84.5 134.5z" glyph-name="ae" horiz-adv-x="919" unicode="&#xe6;"/><glyph d="M110-73q-5 0-5 3 0 20 21 77-65 18-109 78t-44 144q0 94 53 198t136.5 174.5 162.5 70.5q70 0 130-50t60-108q0-20-7.5-30.5t-17.5-10.5q-14 0-14 15 0 14-14.5 22.5t-34.5 8.5q-54 0-117-56t-107-142.5-44-165.5q0-40 11.5-55t35.5-15q42 0 99.5 41.5t109.5 99 102.5 124 80.5 111.5 42 66q16 28 32 28 11 0 20-11t9-26q0-9-7-25-3-7-30.5-51.5t-81.5-118-114.5-142-136-121.5-140.5-59q-10-26-13-38 13 3 28 3 49 0 85.5-29t36.5-74q0-57-54.5-105.5t-125.5-48.5q-48 0-77.5 23t-29.5 60q0 21 9.5 36.5t23.5 15.5q10-1 24-8.5t14-10.5q0-2-5-2-13 0-23-13.5t-10-28.5q0-16 14.5-27t34.5-11q40 0 73 38.5t33 77.5q0 31-23 55t-52 24q-12 0-27-5.5t-17-5.5z" glyph-name="ccedilla" horiz-adv-x="529" unicode="&#xe7;"/><glyph d="M294 261q-29 0-64 16t-35 26q0 7 20 7 34 0 79 25.5t84.5 75 47.5 107.5q-53-6-115.5-61t-106-134-43.5-145q0-43 19.5-68t53.5-25q52 0 124.5 59.5t136 141 108 146 59.5 93.5q16 30 33 30 12 0 20.5-11t8.5-26q0-13-6-25-8-16-35.5-60.5t-83.5-122-116.5-144-137-116.5-141.5-50q-86 0-157 73t-71 174q0 88 55.5 188.5t140.5 168.5 162 68q68 0 129.5-49t61.5-108q0-65-42-126t-95-94.5-94-33.5zM178 1005q0 21 42 58.5t65 37.5q13 0 13-15 0-21 55-121.5t55-146.5q0-19-23-36t-35-17q-6 0-6 8 0 25-83 118.5t-83 113.5z" glyph-name="egrave" horiz-adv-x="552" unicode="&#xe8;"/><glyph d="M195 303q0 7 20 7 34 0 79 25.5t84.5 75 47.5 107.5q-53-6-115.5-61t-106-134-43.5-145q0-43 19.5-68t53.5-25q52 0 124.5 59.5t136 141 108 146 59.5 93.5q16 30 33 30 12 0 20.5-11t8.5-26q0-13-6-25-8-16-35.5-60.5t-83.5-122-116.5-144-137-116.5-141.5-50q-86 0-157 73t-71 174q0 88 55.5 188.5t140.5 168.5 162 68q68 0 129.5-49t61.5-108q0-65-42-126t-95-94.5-94-33.5q-29 0-64 16t-35 26zM366 713q-13 0-38.5 18.5t-25.5 39.5q0 40 30.5 102t61 116.5 30.5 76.5q0 17 14 17 26 0 72-41.5t46-64.5q0-15-28.5-51.5t-63-73-63-74.5-28.5-56q0-9-7-9z" glyph-name="eacute" horiz-adv-x="552" unicode="&#xe9;"/><glyph d="M195 303q0 7 20 7 34 0 79 25.5t84.5 75 47.5 107.5q-53-6-115.5-61t-106-134-43.5-145q0-43 19.5-68t53.5-25q52 0 124.5 59.5t136 141 108 146 59.5 93.5q16 30 33 30 12 0 20.5-11t8.5-26q0-13-6-25-8-16-35.5-60.5t-83.5-122-116.5-144-137-116.5-141.5-50q-86 0-157 73t-71 174q0 88 55.5 188.5t140.5 168.5 162 68q68 0 129.5-49t61.5-108q0-65-42-126t-95-94.5-94-33.5q-29 0-64 16t-35 26zM218 894q0 13 19 24 36 17 94 96 64 90 87 90 12 0 27.5-33t24.5-78q21-94 46-111 10-7 10-22 0-26-25.5-57.5t-43.5-31.5q-38 0-73 180-92-145-131-145-30 0-35 88z" glyph-name="ecircumflex" horiz-adv-x="552" unicode="&#xea;"/><glyph d="M294 261q-29 0-64 16t-35 26q0 7 20 7 34 0 79 25.5t84.5 75 47.5 107.5q-53-6-115.5-61t-106-134-43.5-145q0-43 19.5-68t53.5-25q52 0 124.5 59.5t136 141 108 146 59.5 93.5q16 30 33 30 12 0 20.5-11t8.5-26q0-13-6-25-8-16-35.5-60.5t-83.5-122-116.5-144-137-116.5-141.5-50q-86 0-157 73t-71 174q0 88 55.5 188.5t140.5 168.5 162 68q68 0 129.5-49t61.5-108q0-65-42-126t-95-94.5-94-33.5zM437 873q0 28 16 50.5t36 22.5q33 0 62-14.5t30-31.5q0-7-8-15-12-11-23-31.5t-11-31.5q0-20-33-20-30 0-49.5 20t-19.5 51zM241 925q0 28 16 50.5t36 22.5q33 0 62-14.5t30-31.5q0-7-8-15-12-11-23-31.5t-11-31.5q0-20-33-20-30 0-49.5 20t-19.5 51z" glyph-name="edieresis" horiz-adv-x="552" unicode="&#xeb;"/><glyph d="M316 567q0-15-10-15-26 0-93.5-202t-67.5-247q0-11 3-11 9 0 146 189t162 230q20 34 47 34 10 0 17.5-6t6.5-13q-1-21-87-151.5t-178-252.5-109-122q-79 0-146.5 37t-67.5 83q0 63 90 307.5t122 244.5q44 0 104.5-38t60.5-67zM94 1005q0 21 42 58.5t65 37.5q13 0 13-15 0-21 55-121.5t55-146.5q0-19-23-36t-35-17q-6 0-6 8 0 25-83 118.5t-83 113.5z" glyph-name="igrave" horiz-adv-x="351" unicode="&#xec;"/><glyph d="M456 511q20 34 47 34 10 0 17.5-6t6.5-13q-1-21-87-151.5t-178-252.5-109-122q-79 0-146.5 37t-67.5 83q0 63 90 307.5t122 244.5q44 0 104.5-38t60.5-67q0-15-10-15-26 0-93.5-202t-67.5-247q0-11 3-11 9 0 146 189t162 230zM354 1083q26 0 72-41.5t46-64.5q0-15-28.5-51.5t-63-73-63-74.5-28.5-56q0-9-7-9-13 0-38.5 18.5t-25.5 39.5q0 40 30.5 102t61 116.5 30.5 76.5q0 17 14 17z" glyph-name="iacute" horiz-adv-x="351" unicode="&#xed;"/><glyph d="M306 552q-26 0-93.5-202t-67.5-247q0-11 3-11 9 0 146 189t162 230q20 34 47 34 10 0 17.5-6t6.5-13q-1-21-87-151.5t-178-252.5-109-122q-79 0-146.5 37t-67.5 83q0 63 90 307.5t122 244.5q44 0 104.5-38t60.5-67q0-15-10-15zM153 918q36 17 94 96 64 90 87 90 19 0 54-120 27-91 44-102 10-7 10-22 0-26-25.5-57.5t-43.5-31.5q-38 0-73 180-92-145-131-145-30 0-35 88 0 13 19 24z" glyph-name="icircumflex" horiz-adv-x="351" unicode="&#xee;"/><glyph d="M148 92q9 0 146 189t162 230q20 34 47 34 10 0 17.5-6t6.5-13q-1-21-87-151.5t-178-252.5-109-122q-79 0-146.5 37t-67.5 83q0 63 90 307.5t122 244.5q44 0 104.5-38t60.5-67q0-15-10-15-26 0-93.5-202t-67.5-247q0-11 3-11zM353 873q0 28 16 50.5t36 22.5q33 0 62-14.5t30-31.5q0-7-8-15-12-11-23-31.5t-11-31.5q0-20-33-20-30 0-49.5 20t-19.5 51zM157 925q0 28 16 50.5t36 22.5q33 0 62-14.5t30-31.5q0-7-8-15-12-11-23-31.5t-11-31.5q0-20-33-20-30 0-49.5 20t-19.5 51z" glyph-name="idieresis" horiz-adv-x="351" unicode="&#xef;"/><glyph d="M164 672q39 0 107-29.5t68-55.5q0-11-8-11-22 0-65.5-90t-82.5-206q82 143 184.5 267.5t145.5 124.5q29 0 103-39t74-65q0-8-6.5-15.5t-13.5-7.5q-23 0-64.5-85t-73-191-31.5-160q0-17 3-17 9 0 145.5 193.5t161.5 235.5q22 35 48 35 10 0 17.5-6t6.5-13q-2-34-174-285.5t-196-251.5q-77 0-144.5 35t-67.5 74q0 69 33.5 181t76.5 203q-101-127-185.5-274t-84.5-198q0-21-18-21-38 0-109.5 41.5t-71.5 87.5q0 38 41.5 169.5t96 252.5 84.5 121zM210 934q0 35 33.5 58t83.5 23 109-35 94-35q42 0 42 22 0 16-33.5 31t-33.5 21q0 11 24 11 31 0 58.5-27.5t27.5-59.5-32-53.5-81-21.5q-32 0-61 11t-47.5 23.5-44 23.5-49.5 11q-45 0-45-23 0-16 32-29t32-22q0-10-21-10-33 0-60.5 24.5t-27.5 56.5z" glyph-name="ntilde" horiz-adv-x="706" unicode="&#xf1;"/><glyph d="M302 682q79 0 155-42.5t76-87.5q0-14-8-23t-16-9q-4 0-8 2 6-27 6-64 0-20-1-30 60 0 112 31.5t75 82.5q14 31 33 31 23 0 23-34 0-61-81-115.5t-170-54.5q-29-143-126-256t-198-113q-78 0-134.5 67.5t-56.5 162.5q0 90 52 197.5t128 181 139 73.5zM318 500q-58-61-99.5-159.5t-41.5-180.5q0-75 42-75 55 0 121 93.5t93 201.5q-47 15-78.5 47.5t-36.5 72.5zM210 1005q0 21 42 58.5t65 37.5q13 0 13-15 0-21 55-121.5t55-146.5q0-19-23-36t-35-17q-6 0-6 8 0 25-83 118.5t-83 113.5zM393 501q0-41 50-62 1 10 1 28 0 68-27 68-10 0-17-9.5t-7-24.5z" glyph-name="ograve" unicode="&#xf2;"/><glyph d="M302 682q79 0 155-42.5t76-87.5q0-14-8-23t-16-9q-4 0-8 2 6-27 6-64 0-20-1-30 60 0 112 31.5t75 82.5q14 31 33 31 23 0 23-34 0-61-81-115.5t-170-54.5q-29-143-126-256t-198-113q-78 0-134.5 67.5t-56.5 162.5q0 90 52 197.5t128 181 139 73.5zM318 500q-58-61-99.5-159.5t-41.5-180.5q0-75 42-75 55 0 121 93.5t93 201.5q-47 15-78.5 47.5t-36.5 72.5zM398 713q-13 0-38.5 18.5t-25.5 39.5q0 40 30.5 102t61 116.5 30.5 76.5q0 17 14 17 26 0 72-41.5t46-64.5q0-15-28.5-51.5t-63-73-63-74.5-28.5-56q0-9-7-9zM417 535q-10 0-17-9.5t-7-24.5q0-41 50-62 1 10 1 28 0 68-27 68z" glyph-name="oacute" unicode="&#xf3;"/><glyph d="M302 682q79 0 155-42.5t76-87.5q0-14-8-23t-16-9q-4 0-8 2 6-27 6-64 0-20-1-30 60 0 112 31.5t75 82.5q14 31 33 31 23 0 23-34 0-61-81-115.5t-170-54.5q-29-143-126-256t-198-113q-78 0-134.5 67.5t-56.5 162.5q0 90 52 197.5t128 181 139 73.5zM318 500q-58-61-99.5-159.5t-41.5-180.5q0-75 42-75 55 0 121 93.5t93 201.5q-47 15-78.5 47.5t-36.5 72.5zM250 894q0 13 19 24 36 17 94 96 64 90 87 90 19 0 54-120 27-91 44-102 10-7 10-22 0-26-25.5-57.5t-43.5-31.5q-38 0-73 180-92-145-131-145-30 0-35 88zM417 535q-10 0-17-9.5t-7-24.5q0-41 50-62 1 10 1 28 0 68-27 68z" glyph-name="ocircumflex" unicode="&#xf4;"/><glyph d="M498 369q-29-143-126-256t-198-113q-78 0-134.5 67.5t-56.5 162.5q0 90 52 197.5t128 181 139 73.5q79 0 155-42.5t76-87.5q0-14-8-23t-16-9q-4 0-8 2 6-27 6-64 0-20-1-30 60 0 112 31.5t75 82.5q14 31 33 31 23 0 23-34 0-61-81-115.5t-170-54.5zM177 160q0-75 42-75 55 0 121 93.5t93 201.5q-47 15-78.5 47.5t-36.5 72.5q-58-61-99.5-159.5t-41.5-180.5zM254 937q-45 0-45-23 0-16 32-29t32-22q0-10-21-10-33 0-60.5 24.5t-27.5 56.5q0 35 33.5 58t83.5 23 109-35 94-35q42 0 42 22 0 16-33.5 31t-33.5 21q0 11 24 11 31 0 58.5-27.5t27.5-59.5-32-53.5-81-21.5q-32 0-61 11t-47.5 23.5-44 23.5-49.5 11zM417 535q-10 0-17-9.5t-7-24.5q0-41 50-62 1 10 1 28 0 68-27 68z" glyph-name="otilde" unicode="&#xf5;"/><glyph d="M302 682q79 0 155-42.5t76-87.5q0-14-8-23t-16-9q-4 0-8 2 6-27 6-64 0-20-1-30 60 0 112 31.5t75 82.5q14 31 33 31 23 0 23-34 0-61-81-115.5t-170-54.5q-29-143-126-256t-198-113q-78 0-134.5 67.5t-56.5 162.5q0 90 52 197.5t128 181 139 73.5zM318 500q-58-61-99.5-159.5t-41.5-180.5q0-75 42-75 55 0 121 93.5t93 201.5q-47 15-78.5 47.5t-36.5 72.5zM342 854q-30 0-49.5 20t-19.5 51q0 28 16 50.5t36 22.5q33 0 62-14.5t30-31.5q0-7-8-15-12-11-23-31.5t-11-31.5q0-20-33-20zM469 873q0 28 16 50.5t36 22.5q33 0 62-14.5t30-31.5q0-7-8-15-12-11-23-31.5t-11-31.5q0-20-33-20-30 0-49.5 20t-19.5 51zM417 535q-10 0-17-9.5t-7-24.5q0-41 50-62 1 10 1 28 0 68-27 68z" glyph-name="odieresis" unicode="&#xf6;"/><glyph d="M220-136q0-47-23-47-28 0-28 68 0 42 13 115-85 0-142 67t-57 162q0 91 52 198.5t127.5 181 139.5 73.5q57 0 119-25 66 127 90 127 7 0 12-11t5-27q0-35-29-81-8-13-21-39 55-37 55-74 0-14-8-23t-16-9q-4 0-8 2 6-27 6-64 0-20-1-30 60 0 112 31.5t75 82.5q14 31 33 31 23 0 23-34 0-61-81-115.5t-170-54.5q-23-114-93.5-214.5t-154.5-137.5q-30-108-30-153zM177 160q0-59 25-71 41 162 128 372-9 19-12 39-58-61-99.5-159.5t-41.5-180.5zM385 403q-63-157-107-292 47 37 91.5 113.5t63.5 155.5q-30 10-48 23zM434 523q-12-26-25-61 12-14 34-23 1 10 1 28 0 38-10 56z" glyph-name="oslash" unicode="&#xf8;"/><glyph d="M310 182q-102-182-173-182-46 0-120 49t-74 89q0 33 44.5 162.5t102 250.5 86.5 121q47 0 108.5-29.5t61.5-52.5q0-11-9-11-20 0-70-104t-92.5-231-42.5-183q16 6 38 31.5t52 75 51.5 87.5 58.5 108q40 74 63.5 115.5t55.5 93.5 55 75.5 39 23.5q27 0 85-39t58-68q0-7-4.5-13t-9.5-6q-22 0-65-86t-77.5-192-34.5-159q0-16 3-16 9 0 145 194.5t162 236.5q22 35 48 35 10 0 17-5.5t7-13.5q-2-21-87.5-154.5t-177-259-107.5-125.5q-77 0-140.5 35t-63.5 74q0 35 7 73zM255 1005q0 21 42 58.5t65 37.5q13 0 13-15 0-21 55-121.5t55-146.5q0-19-23-36t-35-17q-6 0-6 8 0 25-83 118.5t-83 113.5z" glyph-name="ugrave" horiz-adv-x="702" unicode="&#xf9;"/><glyph d="M310 182q-102-182-173-182-46 0-120 49t-74 89q0 33 44.5 162.5t102 250.5 86.5 121q47 0 108.5-29.5t61.5-52.5q0-11-9-11-20 0-70-104t-92.5-231-42.5-183q16 6 38 31.5t52 75 51.5 87.5 58.5 108q40 74 63.5 115.5t55.5 93.5 55 75.5 39 23.5q27 0 85-39t58-68q0-7-4.5-13t-9.5-6q-22 0-65-86t-77.5-192-34.5-159q0-16 3-16 9 0 145 194.5t162 236.5q22 35 48 35 10 0 17-5.5t7-13.5q-2-21-87.5-154.5t-177-259-107.5-125.5q-77 0-140.5 35t-63.5 74q0 35 7 73zM443 713q-13 0-38.5 18.5t-25.5 39.5q0 40 30.5 102t61 116.5 30.5 76.5q0 17 14 17 26 0 72-41.5t46-64.5q0-19-45.5-71.5t-91.5-107-46-76.5q0-9-7-9z" glyph-name="uacute" horiz-adv-x="702" unicode="&#xfa;"/><glyph d="M310 182q-102-182-173-182-46 0-120 49t-74 89q0 33 44.5 162.5t102 250.5 86.5 121q47 0 108.5-29.5t61.5-52.5q0-11-9-11-20 0-70-104t-92.5-231-42.5-183q16 6 38 31.5t52 75 51.5 87.5 58.5 108q40 74 63.5 115.5t55.5 93.5 55 75.5 39 23.5q27 0 85-39t58-68q0-7-4.5-13t-9.5-6q-22 0-65-86t-77.5-192-34.5-159q0-16 3-16 9 0 145 194.5t162 236.5q22 35 48 35 10 0 17-5.5t7-13.5q-2-21-87.5-154.5t-177-259-107.5-125.5q-77 0-140.5 35t-63.5 74q0 35 7 73zM295 894q0 13 19 24 36 17 94 96 64 90 87 90 19 0 54-120 27-91 44-102 10-7 10-22 0-26-25.5-57.5t-43.5-31.5q-38 0-73 180-92-145-131-145-30 0-35 88z" glyph-name="ucircumflex" horiz-adv-x="702" unicode="&#xfb;"/><glyph d="M310 182q-102-182-173-182-46 0-120 49t-74 89q0 33 44.5 162.5t102 250.5 86.5 121q47 0 108.5-29.5t61.5-52.5q0-11-9-11-20 0-70-104t-92.5-231-42.5-183q16 6 38 31.5t52 75 51.5 87.5 58.5 108q40 74 63.5 115.5t55.5 93.5 55 75.5 39 23.5q27 0 85-39t58-68q0-7-4.5-13t-9.5-6q-22 0-65-86t-77.5-192-34.5-159q0-16 3-16 9 0 145 194.5t162 236.5q22 35 48 35 10 0 17-5.5t7-13.5q-2-21-87.5-154.5t-177-259-107.5-125.5q-77 0-140.5 35t-63.5 74q0 35 7 73zM583 802q-30 0-49.5 20t-19.5 51q0 28 16 50.5t36 22.5q33 0 62-14.5t30-31.5q0-7-8-15-12-11-23-31.5t-11-31.5q0-20-33-20zM387 854q-30 0-49.5 20t-19.5 51q0 28 16 50.5t36 22.5q33 0 62-14.5t30-31.5q0-7-8-15-12-11-23-31.5t-11-31.5q0-20-33-20z" glyph-name="udieresis" horiz-adv-x="702" unicode="&#xfc;"/><glyph d="M-40-145q8 0 14.5-11.5t6.5-31.5q0-45 30.5-79t74.5-34q60 0 116.5 65t91 167.5 34.5 208.5q0 27 3 54-120-194-195-194-45 0-118 49t-73 89q0 56 90 295t125 239q46 0 113.5-31t67.5-54q0-8-7-8-19 0-68-104.5t-91-231.5-42-183q31 11 78 86.5t123 217.5q38 72 62 115t55.5 93.5 55 75 40.5 24.5q26 0 86-38t60-63q0-16-11-16-30 0-119-315-84-295-133-390-53-100-148-157.5t-183-57.5q-77 0-121.5 44t-44.5 113q0 30 8 46.5t19 16.5zM364 771q0 40 30.5 102t61 116.5 30.5 76.5q0 17 14 17 26 0 72-41.5t46-64.5q0-15-28.5-51.5t-63-73-63-74.5-28.5-56q0-9-7-9-13 0-38.5 18.5t-25.5 39.5z" glyph-name="yacute" horiz-adv-x="691" unicode="&#xfd;"/><glyph d="M-40-145q8 0 14.5-11.5t6.5-31.5q0-45 30.5-79t74.5-34q60 0 116.5 65t91 167.5 34.5 208.5q0 27 3 54-120-194-195-194-45 0-118 49t-73 89q0 56 90 295t125 239q46 0 113.5-31t67.5-54q0-8-7-8-19 0-68-104.5t-91-231.5-42-183q31 11 78 86.5t123 217.5q38 72 62 115t55.5 93.5 55 75 40.5 24.5q26 0 86-38t60-63q0-16-11-16-30 0-119-315-84-295-133-390-53-100-148-157.5t-183-57.5q-77 0-121.5 44t-44.5 113q0 30 8 46.5t19 16.5zM568 802q-30 0-49.5 20t-19.5 51q0 28 16 50.5t36 22.5q33 0 62-14.5t30-31.5q0-7-8-15-12-11-23-31.5t-11-31.5q0-20-33-20zM303 925q0 28 16 50.5t36 22.5q33 0 62-14.5t30-31.5q0-7-8-15-12-11-23-31.5t-11-31.5q0-20-33-20-30 0-49.5 20t-19.5 51z" glyph-name="ydieresis" horiz-adv-x="691" unicode="&#xff;"/><glyph d="M316 567q0-15-10-15-26 0-93.5-202t-67.5-247q0-11 3-11 9 0 146 189t162 230q20 34 47 34 10 0 17.5-6t6.5-13q-1-21-87-151.5t-178-252.5-109-122q-79 0-146.5 37t-67.5 83q0 63 90 307.5t122 244.5q44 0 104.5-38t60.5-67z" glyph-name="dotlessi" horiz-adv-x="351" unicode="&#x131;"/><glyph d="M398 470q-4-4-7-4-11 0-11 20t13 46 27 40q31 29 160 79 116 309 163 484-123-42-255-152t-220.5-244-88.5-238q0-62 31-98t82-36q43 0 43-21 0-11-17-18.5t-47-7.5q-82 0-133.5 62t-51.5 160q0 89 44 193t118.5 197.5 164 171.5 188.5 124.5 183 46.5q68 0 129-46t61-90q0-61-122-399 71 19 91 19 24 0 24-27 0-15-9-37.5t-18-26.5q-2-1-8-1-24 0-118-30-114-306-207-514 135-15 249-62.5t178-112.5 64-132q0-34-15-81t-38.5-82-42.5-34q-17 0-17 36 0 111-124 212.5t-309 137.5q-15-27-21-37-39-62-103.5-95.5t-134.5-33.5q-71 0-114.5 32t-43.5 85q0 61 61 104t167 60q76 162 175 418-119-48-140-68zM200-38q0-11 8.5-19t20.5-8q23 0 48 29 15 18 33 51-110-15-110-53z" glyph-name="Lslash" horiz-adv-x="1017" unicode="&#x141;"/><glyph d="M492 919q-33 0-124-186 87 26 115 26 27 0 27-27 0-15-9-37.5t-18-26.5q-3-1-6-1-29 1-160-43-71-159-125-313t-54-205q0-14 3-14 9 0 146 189t162 229q20 34 47 34 10 0 17.5-6t6.5-13q-1-21-86.5-151t-177.5-252-109-122q-79 0-141.5 38t-62.5 88q0 80 125 407-103-42-127-63-4-4-8-4-10 0-10 20t13 46 27 40q30 28 149 74 70 170 128.5 280.5t87.5 110.5q24 0 102-37.5t78-62.5q0-6-5-12t-11-6z" glyph-name="lslash" horiz-adv-x="344" unicode="&#x142;"/><glyph d="M2261 525q0-14-7-28-131-263-314.5-421t-365.5-158q-121 0-228 67.5t-158 171.5q-108-110-236.5-174.5t-248.5-64.5q-152 0-257 99t-126 251q-16-8-46-8-83 0-135.5 68t-52.5 177q0 103 48.5 212t133.5 202.5 191.5 168.5 232 118.5 244.5 43.5q226 0 367-146t141-371q0-42-4-74 90 35 186 45-119 74-119 167 0 70 62 151t157.5 137.5 182.5 56.5 151-53.5 64-126.5q0-65-48.5-130.5t-93.5-65.5q-29 0-75 25t-46 38q0 7 8 7 29 0 84.5 72t59.5 128q-63-3-132.5-43t-115.5-97.5-46-107.5q0-54 50.5-101t111.5-72q45-18 91-28 19-5 36.5-32t17.5-52q0-19-10-19-9 0-32 9-52 20-136 20-133 0-256.5-51t-200.5-139-77-187q0-86 59-133t167-47q177 0 348 124t288 334q21 39 33.5 53t24.5 14 19.5-8.5 7.5-21.5zM1307 812q0 121-85 197.5t-238 76.5q-68 0-137-15 30-22 48.5-47.5t18.5-46.5q0-15-12-26-15-13-62.5-63t-117-135-132-176-107.5-193-45-178q0-85 37.5-130t107.5-45q93 0 220.5 78t238 192 188 255 77.5 256zM595 975q-177-96-296.5-238.5t-119.5-272.5q0-68 33-112t83-44q13 0 21-3 0 141 79.5 332.5t199.5 337.5z" glyph-name="OE" horiz-adv-x="2105" unicode="&#x152;"/><glyph d="M302 682q79 0 155-42.5t76-87.5q0-14-8-23t-16-9q-4 0-8 2 2-10 4-29 56 79 128 129t137 50q68 0 129.5-49t61.5-109q0-65-42-125.5t-95-94-94-33.5q-29 0-64 16t-35 26q0 7 20 7 34 0 79 25.5t84.5 75 47.5 107.5q-53-6-115.5-61t-106-134-43.5-145q0-43 19.5-68t53.5-25q52 0 124.5 59.5t136 141 108 146 59.5 93.5q16 30 33 30 12 0 20.5-11t8.5-26q0-13-6-25-8-16-35.5-60.5t-83.5-122-116.5-144-136.5-116.5-141-50q-71 0-134.5 51t-85.5 129q-51-81-116.5-130.5t-130.5-49.5q-78 0-134.5 67.5t-56.5 162.5q0 90 52 197.5t128 181 139 73.5zM318 500q-58-61-99.5-159.5t-41.5-180.5q0-75 42-75 55 0 120.5 93t92.5 200q-47 14-78.5 47.5t-35.5 74.5zM393 501q0-41 50-62 1 10 1 28 0 68-27 68-10 0-17-9.5t-7-24.5z" glyph-name="oe" horiz-adv-x="988" unicode="&#x153;"/></font>
</defs>
</svg>
